<?xml version="1.0" encoding="UTF-8" standalone="no"?>
<svg xmlns="http://www.w3.org/2000/svg">
<metadata>
This is a SVG font generated by Alphabet Type GmbH.
</metadata>
<defs>
<font id="FORsmartNextWebBold" horiz-adv-x="1151" >
<font-face units-per-em="2048" ascent="1854" descent="-434" />
<missing-glyph horiz-adv-x="1151" />
<glyph unicode="&#x20;" horiz-adv-x="549" />
<glyph unicode="&#x21;" horiz-adv-x="616" d="M168 1359L450 1359L409 506L209 506L168 1359ZM450 0L163 0L163 305L450 305L450 0Z"/>
<glyph unicode="&#x22;" horiz-adv-x="1011" d="M426 1519L395 881L152 881L122 1519L426 1519ZM889 1519L860 881L616 881L586 1519L889 1519Z"/>
<glyph unicode="&#x23;" horiz-adv-x="1112" d="M34 1103L271 1103L317 1519L533 1519L485 1103L685 1103L731 1519L947 1519L899 1103L1078 1103L1078 897L876 897L844 597L1078 597L1078 392L818 392L772 -29L556 -29L604 392L405 392L358 -29L142 -29L191 392L34 392L34 597L214 597L246 897L34 897L34 1103ZM429 597L627 597L659 897L462 897L429 597Z"/>
<glyph unicode="&#x24;" horiz-adv-x="1130" d="M1018 1359L1018 934L790 934C785 977 774 1016 755 1050C747 1065 737 1079 726 1093C714 1106 700 1119 683 1130C666 1141 647 1149 625 1156C603 1163 578 1166 549 1166C520 1166 494 1163 471 1157C447 1151 427 1142 410 1130C393 1117 381 1101 372 1082C363 1062 358 1038 358 1011C358 971 368 938 388 913C408 887 434 865 467 848C500 830 537 814 578 801C599 795 619 789 640 782C661 775 683 767 706 760C749 746 792 730 834 711C875 692 912 667 945 638C978 608 1004 571 1024 527C1044 483 1054 429 1054 365C1054 298 1044 239 1023 190C1002 141 974 100 939 68C903 35 861 11 813 -5C764 -21 712 -29 657 -29L657 -254L462 -254L462 0C432 11 405 24 380 41C355 58 334 77 317 99L294 0L97 0L97 406L322 406C333 367 351 331 374 300C384 287 396 274 410 261C423 248 439 237 458 227C476 217 497 209 520 203C543 197 568 194 596 194C617 194 638 197 659 202C680 207 700 215 717 227C734 238 747 254 758 273C769 292 774 317 774 346C774 382 764 411 744 434C724 457 698 476 665 492C632 508 595 522 553 534C532 540 512 546 491 553C470 560 448 568 426 575C383 590 340 608 299 629C257 650 220 677 187 710C154 743 128 783 108 832C88 880 78 939 78 1009C78 1060 86 1107 103 1151C120 1195 144 1234 177 1267C210 1300 250 1328 298 1349C345 1370 400 1382 462 1386L462 1597L657 1597L657 1362C687 1353 715 1339 742 1322C768 1304 789 1287 805 1270L829 1359L1018 1359Z"/>
<glyph unicode="&#x25;" horiz-adv-x="1493" d="M372 1226C334 1226 304 1212 281 1185C258 1158 246 1121 246 1076C246 1054 249 1034 255 1015C261 996 270 980 281 967C292 953 305 942 320 935C335 928 353 924 372 924C411 924 442 938 465 967C488 995 499 1031 499 1076C499 1121 488 1158 465 1185C442 1212 411 1226 372 1226ZM372 1401C417 1401 458 1392 495 1375C532 1357 564 1333 591 1303C618 1273 638 1238 653 1199C668 1160 675 1119 675 1076C675 1033 668 992 653 953C638 914 618 879 592 849C565 819 533 795 496 777C459 759 417 750 372 750C327 750 286 759 249 777C212 795 180 819 153 849C126 879 106 914 91 953C76 992 69 1033 69 1076C69 1119 77 1160 92 1199C107 1238 128 1273 155 1303C182 1333 214 1357 251 1375C288 1392 328 1401 372 1401ZM1030 1359L1205 1359L457 0L285 0L1030 1359ZM1121 448C1083 448 1053 434 1030 407C1007 379 995 343 995 298C995 253 1007 216 1030 188C1053 159 1083 145 1121 145C1161 145 1192 159 1215 188C1237 216 1248 253 1248 298C1248 343 1237 379 1215 407C1192 434 1161 448 1121 448ZM1121 622C1166 622 1207 613 1244 596C1281 578 1314 554 1341 524C1368 494 1388 460 1403 421C1418 382 1425 341 1425 298C1425 255 1418 213 1403 174C1388 135 1368 100 1341 70C1314 40 1282 16 1245 -2C1208 -20 1166 -29 1121 -29C1076 -29 1035 -20 998 -2C961 16 929 40 902 70C875 100 855 135 840 174C825 213 818 255 818 298C818 341 826 382 841 421C856 460 876 494 903 524C930 554 962 578 999 596C1036 613 1077 622 1121 622Z"/>
<glyph unicode="&#x26;" horiz-adv-x="1299" d="M1225 552L1087 552C1079 510 1068 464 1055 415C1041 366 1022 317 998 269L1195 0L926 0L850 94C809 58 760 29 702 6C644 -18 576 -29 499 -29C468 -29 437 -26 404 -21C371 -16 338 -7 307 6C275 19 245 35 217 55C188 75 163 100 142 130C121 159 104 194 92 233C79 272 73 317 73 368C73 417 80 460 94 499C108 538 128 573 153 604C178 635 207 664 241 690C274 716 311 741 350 764C329 791 310 818 292 844C273 870 257 896 243 922C229 948 218 974 210 1001C202 1027 198 1054 198 1081C198 1114 203 1148 214 1185C225 1221 244 1254 272 1285C299 1316 337 1341 385 1361C432 1381 493 1391 567 1391C633 1391 689 1382 736 1365C782 1347 820 1324 849 1295C878 1266 899 1233 912 1196C925 1159 931 1122 931 1084C931 1045 925 1008 912 973C899 938 881 904 859 873C836 841 810 811 779 783C748 754 715 728 680 704L839 493C850 527 860 560 867 591C874 622 879 650 883 675C888 704 891 731 894 757L1225 757L1225 552ZM538 186C577 186 612 194 641 211C670 228 696 249 717 276L485 583C463 568 443 553 425 538C406 523 390 506 377 489C364 472 353 453 346 433C339 413 335 391 335 368C335 349 339 328 348 307C356 286 369 266 386 248C403 230 424 215 449 204C474 192 504 186 538 186ZM446 1081C446 1066 448 1052 453 1039C458 1026 464 1012 473 997C482 982 492 965 505 948C518 930 532 910 549 888C568 903 586 918 603 933C620 948 634 963 646 980C658 996 668 1013 675 1030C682 1047 685 1065 685 1084C685 1102 682 1118 675 1132C668 1145 660 1157 649 1166C638 1175 625 1181 611 1186C596 1191 582 1193 567 1193C546 1193 527 1190 512 1183C497 1176 484 1168 475 1157C465 1146 458 1134 453 1121C448 1108 446 1094 446 1081Z"/>
<glyph unicode="&#x27;" horiz-adv-x="547" d="M426 1519L395 881L152 881L122 1519L426 1519Z"/>
<glyph unicode="&#x28;" horiz-adv-x="706" d="M591 1359C552 1272 516 1180 485 1082C472 1040 459 995 446 947C433 898 422 848 412 796C402 743 394 689 388 633C382 577 379 521 379 464C379 407 382 351 388 296C394 240 402 186 412 133C421 80 432 30 445 -19C457 -67 470 -112 483 -154C514 -253 549 -346 588 -433L326 -433C289 -344 255 -250 226 -151C213 -109 201 -64 189 -15C177 34 166 84 157 137C148 189 140 243 135 298C129 353 126 408 126 464C126 520 129 576 134 631C139 686 146 740 155 793C164 845 174 895 185 944C196 992 207 1037 219 1079C246 1178 278 1271 313 1359L591 1359Z"/>
<glyph unicode="&#x29;" horiz-adv-x="706" d="M393 1359C428 1271 459 1178 486 1079C498 1037 510 992 521 944C532 895 542 845 551 793C560 740 567 686 572 631C577 576 580 520 580 464C580 408 577 353 572 298C566 243 558 189 549 137C540 84 529 34 517 -15C505 -64 493 -109 480 -151C451 -250 417 -344 380 -433L118 -433C157 -346 191 -253 222 -154C235 -112 247 -67 260 -19C273 30 284 80 294 133C304 186 312 240 318 296C324 351 327 407 327 464C327 521 324 577 318 633C312 689 304 743 294 796C284 848 273 898 260 947C247 995 234 1040 221 1082C190 1180 154 1272 115 1359L393 1359Z"/>
<glyph unicode="&#x2a;" horiz-adv-x="970" d="M122 1529L402 1437L402 1739L572 1739L572 1437L855 1529L901 1364L620 1275L797 1023L651 914L483 1166L319 914L175 1023L350 1275L69 1364L122 1529Z"/>
<glyph unicode="&#x2b;" horiz-adv-x="1090" d="M940 578L648 578L648 273L439 273L439 578L147 578L147 776L439 776L439 1084L648 1084L648 776L940 776L940 578Z"/>
<glyph unicode="&#x2c;" horiz-adv-x="643" d="M512 247L253 -392L9 -392L198 247L512 247Z"/>
<glyph unicode="&#x2d;" horiz-adv-x="1177" d="M993 547L184 547L184 752L993 752L993 547Z"/>
<glyph unicode="&#x2e;" horiz-adv-x="614" d="M450 0L163 0L163 293L450 293L450 0Z"/>
<glyph unicode="&#x2f;" horiz-adv-x="850" d="M-23 -312L560 1391L781 1391L191 -312L-23 -312Z"/>
<glyph unicode="&#x30;" horiz-adv-x="1092" d="M547 1176C504 1176 468 1161 441 1131C414 1101 392 1062 377 1013C361 964 350 908 344 846C338 784 335 721 335 658C335 595 338 534 344 477C350 420 361 370 377 327C392 284 414 249 441 224C468 199 504 186 547 186C590 186 625 199 652 224C679 249 700 284 715 327C730 370 741 420 747 477C753 534 756 595 756 658C756 721 753 784 747 846C741 908 730 964 715 1013C700 1062 679 1101 652 1131C625 1161 590 1176 547 1176ZM547 1391C630 1391 701 1372 760 1333C818 1294 866 1241 903 1174C940 1107 967 1029 984 940C1001 851 1009 757 1009 658C1009 559 1001 467 984 383C967 299 940 227 903 166C866 105 818 57 760 23C701 -12 630 -29 547 -29C463 -29 392 -12 333 23C274 57 227 105 190 166C153 227 126 299 109 383C92 467 83 559 83 658C83 757 92 851 109 940C126 1029 153 1107 190 1174C227 1241 274 1294 333 1333C392 1372 463 1391 547 1391Z"/>
<glyph unicode="&#x31;" horiz-adv-x="1092" d="M156 1209L563 1359L720 1359L720 206L950 206L950 0L230 0L230 206L460 206L460 1084L228 1004L156 1209Z"/>
<glyph unicode="&#x32;" horiz-adv-x="1092" d="M983 397L983 0L117 0L117 191L531 677C560 712 585 743 606 771C627 799 644 825 657 850C670 875 679 898 685 921C691 943 694 966 694 989C694 1025 687 1055 674 1079C660 1102 643 1121 622 1136C601 1151 579 1161 555 1167C531 1173 509 1176 489 1176C456 1176 426 1171 397 1160C368 1149 342 1134 319 1115L319 963L108 963L108 1226C160 1281 219 1323 286 1350C352 1377 420 1391 489 1391C539 1391 590 1384 643 1370C696 1355 744 1332 787 1300C830 1268 865 1227 892 1176C919 1125 933 1062 933 989C933 947 927 905 915 864C903 823 886 782 865 742C844 702 818 663 788 624C757 585 724 547 687 510L388 206L772 206L772 397L983 397Z"/>
<glyph unicode="&#x33;" horiz-adv-x="1092" d="M249 285C280 253 317 229 358 212C399 195 439 186 478 186C519 186 553 192 582 205C610 217 633 233 651 253C669 272 682 294 690 319C698 344 702 368 702 392C702 458 683 506 644 537C605 568 541 583 454 583L389 583L389 789L454 789C489 789 519 794 546 803C572 812 594 825 612 842C629 859 643 879 652 902C661 925 665 950 665 977C665 1012 660 1042 649 1067C638 1092 623 1112 605 1129C586 1145 565 1157 541 1165C516 1172 491 1176 465 1176C426 1176 388 1167 352 1148C316 1129 284 1105 256 1074L115 1246C166 1294 224 1330 289 1355C353 1379 423 1391 499 1391C566 1391 625 1380 675 1359C725 1338 767 1309 800 1274C833 1239 858 1199 875 1154C891 1109 899 1062 899 1014C899 985 896 954 891 923C885 891 875 861 862 832C849 803 831 776 810 753C788 729 761 710 729 697C762 683 791 666 818 646C845 626 868 603 887 577C906 550 920 520 931 487C941 453 946 416 946 375C946 304 934 244 910 193C886 142 854 100 815 67C775 34 729 10 677 -6C625 -21 571 -29 515 -29C426 -29 348 -17 281 7C214 31 157 65 111 109L249 285Z"/>
<glyph unicode="&#x34;" horiz-adv-x="1092" d="M458 0L458 206L590 206L590 368L63 368L63 556L532 1359L819 1359L819 564L1001 564L1001 368L819 368L819 206L943 206L943 0L458 0ZM300 564L590 564L590 1076L300 564Z"/>
<glyph unicode="&#x35;" horiz-adv-x="1092" d="M873 1154L436 1154L391 868C417 881 447 892 480 899C513 906 543 910 569 910C622 910 673 901 720 882C767 863 809 834 844 796C879 758 907 710 928 652C948 594 958 526 958 448C958 381 948 318 929 260C909 202 880 152 842 109C803 66 756 32 700 8C643 -17 579 -29 506 -29C465 -29 427 -26 393 -19C358 -12 327 -4 299 6C271 16 246 27 225 39C204 51 186 62 172 72C158 82 147 91 140 98C132 105 128 108 128 109L266 285C283 266 302 250 325 235C344 222 369 211 398 201C427 191 461 186 499 186C532 186 563 192 590 205C617 217 641 234 660 257C679 279 694 306 705 338C716 369 721 404 721 443C721 471 718 499 711 528C704 557 691 582 673 605C655 628 630 646 599 661C568 675 528 682 480 682C443 682 406 674 367 659C328 644 294 626 264 605L154 714L258 1359L873 1359L873 1154Z"/>
<glyph unicode="&#x36;" horiz-adv-x="1092" d="M844 1110C827 1122 808 1133 786 1143C767 1151 745 1159 720 1166C695 1173 666 1176 635 1176C608 1176 578 1172 547 1163C516 1154 486 1135 459 1108C432 1080 409 1041 391 990C373 939 364 872 364 789C393 824 431 852 478 871C525 890 575 900 628 900C685 900 736 890 783 870C829 849 869 820 902 781C935 742 960 695 978 638C996 581 1005 516 1005 443C1005 382 998 328 985 281C972 234 954 193 932 158C909 123 884 94 855 70C826 46 795 27 764 12C732 -3 700 -13 669 -20C637 -26 607 -29 580 -29C510 -29 446 -16 388 10C330 36 280 76 239 131C197 186 165 256 142 341C119 426 108 529 108 648C108 761 118 857 138 938C157 1019 183 1087 214 1142C245 1197 279 1241 318 1274C357 1307 395 1332 434 1349C472 1366 508 1378 542 1383C575 1388 602 1391 623 1391C670 1391 713 1386 752 1376C791 1365 824 1354 853 1342C886 1328 916 1312 943 1294L844 1110ZM359 544C359 476 365 419 378 374C390 328 406 291 427 264C447 237 471 217 498 206C525 195 553 189 582 189C610 189 635 195 658 207C681 219 700 236 716 258C732 280 744 307 753 338C762 369 766 404 766 443C766 473 762 502 755 531C747 560 735 585 719 607C703 629 683 647 659 660C635 673 607 680 575 680C548 680 523 676 500 667C477 658 456 647 438 634C419 621 403 606 390 590C376 574 366 559 359 544Z"/>
<glyph unicode="&#x37;" horiz-adv-x="1092" d="M138 951L138 1359L980 1359L980 1154L529 0L283 0L738 1154L366 1154L366 951L138 951Z"/>
<glyph unicode="&#x38;" horiz-adv-x="1092" d="M543 1391C568 1391 596 1389 626 1386C656 1382 686 1375 716 1365C745 1355 774 1341 801 1324C828 1307 853 1284 874 1257C895 1229 911 1195 924 1156C937 1117 943 1070 943 1016C943 949 928 890 897 838C866 786 822 748 767 723C801 710 832 692 860 669C888 646 912 619 931 588C950 557 965 524 976 487C987 450 992 412 992 373C992 325 986 282 973 244C960 205 942 171 920 142C897 112 871 86 842 65C812 44 781 26 748 12C715 -2 680 -12 645 -19C610 -26 576 -29 543 -29C510 -29 477 -26 443 -19C408 -12 375 -2 342 12C309 25 277 43 248 65C219 86 193 112 172 142C150 171 133 205 120 244C107 283 100 326 100 373C100 417 106 457 117 494C128 531 144 564 165 593C185 622 209 647 236 669C263 690 293 708 325 723C298 734 273 750 252 770C230 789 211 812 196 837C181 862 169 890 161 921C152 951 148 983 148 1016C148 1066 154 1110 167 1148C179 1186 196 1219 217 1247C238 1274 262 1297 289 1316C316 1335 344 1350 373 1361C402 1372 432 1379 461 1384C490 1389 518 1391 543 1391ZM543 593C518 593 494 589 471 580C447 571 426 557 408 540C389 522 374 500 363 475C352 450 346 421 346 389C346 356 352 328 364 303C375 278 390 256 409 239C427 222 448 209 472 200C495 191 519 186 543 186C568 186 592 191 617 200C641 209 663 222 682 239C701 256 716 278 728 303C740 328 746 356 746 389C746 421 740 450 729 475C717 500 702 522 683 540C664 557 642 571 618 580C593 589 568 593 543 593ZM543 837C566 837 588 841 609 850C630 858 648 870 663 886C678 901 689 920 698 942C707 964 711 989 711 1016C711 1043 707 1068 698 1090C689 1112 678 1131 663 1147C648 1162 630 1174 609 1183C588 1191 566 1195 543 1195C520 1195 498 1191 478 1183C458 1174 441 1162 426 1147C411 1131 400 1112 391 1090C382 1068 378 1043 378 1016C378 986 382 960 391 938C400 915 411 897 426 882C441 867 458 855 478 848C498 841 520 837 543 837Z"/>
<glyph unicode="&#x39;" horiz-adv-x="1092" d="M245 285C262 266 281 250 304 235C323 222 348 211 377 201C406 191 439 186 477 186C505 186 534 191 565 200C596 209 624 228 649 256C674 283 694 322 711 373C727 423 735 489 735 571C705 537 667 510 620 491C573 472 523 462 470 462C415 462 365 472 319 492C273 512 233 541 200 580C166 618 140 665 121 722C102 779 93 844 93 917C93 978 100 1033 113 1080C126 1127 144 1168 167 1203C189 1238 215 1268 244 1292C273 1316 304 1335 336 1350C367 1365 399 1375 431 1382C462 1388 492 1391 519 1391C581 1391 640 1380 697 1359C754 1338 804 1301 848 1250C891 1198 926 1129 952 1042C977 955 990 845 990 714C990 599 981 500 962 419C943 338 918 270 887 215C856 160 822 116 784 84C745 51 707 27 669 10C631 -7 595 -17 561 -22C526 -27 498 -29 475 -29C414 -29 361 -22 316 -8C271 7 232 23 201 40C164 60 133 83 108 109L245 285ZM737 818C737 886 731 943 720 988C708 1033 692 1070 672 1097C651 1124 628 1144 601 1156C574 1167 546 1173 516 1173C460 1173 416 1152 383 1109C350 1066 333 1002 333 917C333 886 337 856 345 828C352 799 364 774 380 752C395 730 415 713 439 700C463 687 491 680 524 680C551 680 576 684 599 693C622 702 643 713 662 726C680 739 696 754 709 771C722 787 731 803 737 818Z"/>
<glyph unicode="&#x3a;" horiz-adv-x="701" d="M494 0L207 0L207 293L494 293L494 0ZM494 769L207 769L207 1062L494 1062L494 769Z"/>
<glyph unicode="&#x3b;" horiz-adv-x="745" d="M522 769L237 769L237 1062L522 1062L522 769ZM536 247L275 -392L34 -392L223 247L536 247Z"/>
<glyph unicode="&#x3c;" horiz-adv-x="742" d="M747 290L604 111L-40 670L604 1231L747 1050L312 670L747 290Z"/>
<glyph unicode="&#x3d;" horiz-adv-x="1090" d="M942 798L147 798L147 1001L942 1001L942 798ZM942 360L147 360L147 566L942 566L942 360Z"/>
<glyph unicode="&#x3e;" horiz-adv-x="742" d="M430 670L-5 1050L138 1231L782 670L138 111L-5 290L430 670Z"/>
<glyph unicode="&#x3f;" horiz-adv-x="1119" d="M117 970L117 1294C142 1307 173 1320 209 1332C244 1343 281 1354 320 1363C359 1372 397 1379 436 1384C474 1389 509 1391 540 1391C595 1391 649 1384 702 1369C755 1354 802 1332 843 1302C884 1272 917 1234 942 1187C967 1140 979 1085 979 1021C979 967 971 922 954 886C937 850 915 819 890 794C865 768 837 745 807 725C791 715 776 705 762 694C749 685 736 675 724 665C699 645 678 622 661 597C644 572 635 540 635 503L635 455L377 455L377 503C377 562 385 611 401 649C417 687 437 719 462 744C486 769 512 791 540 808C555 817 569 827 582 836C595 845 607 854 618 863C643 882 663 903 679 927C695 951 703 982 703 1021C703 1039 700 1056 694 1073C688 1090 678 1104 663 1117C648 1130 628 1140 603 1148C578 1155 547 1159 510 1159C488 1159 463 1156 435 1150C407 1143 381 1133 356 1120L356 970L117 970ZM648 0L363 0L363 305L648 305L648 0Z"/>
<glyph unicode="&#x40;" horiz-adv-x="1508" d="M1161 111C1131 85 1095 62 1054 41C1019 24 976 8 926 -7C875 -22 818 -29 753 -29C659 -29 571 -11 489 26C407 63 336 113 275 177C214 240 166 315 131 402C96 488 78 581 78 680C78 746 86 809 102 870C118 931 141 987 170 1040C199 1093 234 1141 275 1184C316 1227 361 1264 411 1295C461 1326 515 1349 573 1366C630 1383 690 1391 753 1391C847 1391 935 1378 1018 1351C1100 1324 1172 1284 1233 1232C1294 1180 1342 1116 1377 1040C1412 963 1430 875 1430 776C1430 694 1418 624 1393 566C1368 507 1336 459 1297 422C1258 385 1215 357 1168 340C1121 323 1075 314 1032 314C1024 314 1011 315 993 317C975 318 956 323 937 330C917 337 898 347 881 361C864 374 851 393 844 416C828 395 811 379 793 366C775 353 757 342 738 335C719 327 701 322 683 319C664 316 647 314 630 314C598 314 568 319 539 330C510 340 484 356 463 378C442 399 425 427 412 461C399 495 393 536 393 583C393 667 404 739 427 800C450 861 478 911 513 950C547 989 585 1017 626 1036C667 1055 707 1064 745 1064C789 1064 827 1055 859 1036C890 1017 913 988 928 948L947 1023L1101 1023L983 593C980 578 977 564 974 551C971 538 970 525 970 513C970 498 973 487 978 479C983 470 990 464 998 460C1005 455 1013 453 1021 452C1029 451 1036 450 1041 450C1072 450 1101 457 1129 472C1156 487 1181 508 1202 536C1223 564 1239 598 1252 639C1265 679 1271 725 1271 776C1271 851 1258 917 1233 975C1208 1032 1172 1081 1126 1120C1080 1159 1025 1189 962 1209C899 1229 829 1239 753 1239C677 1239 608 1224 545 1194C482 1164 427 1123 382 1072C336 1021 300 961 275 894C250 826 237 755 237 680C237 605 250 533 275 466C300 399 336 340 382 289C427 238 482 198 545 168C608 138 677 123 753 123C807 123 854 129 894 140C933 151 967 163 994 176C1026 192 1053 210 1075 230L1161 111ZM852 721C856 733 859 747 862 764C865 781 866 795 866 806C866 844 857 874 839 896C820 918 793 929 756 929C729 929 703 920 678 902C653 884 632 860 613 829C594 798 580 761 569 719C558 676 552 631 552 583C552 565 554 548 558 532C562 515 568 501 577 489C586 477 597 468 610 461C623 454 640 450 659 450C700 450 733 464 760 493C787 522 808 562 823 614L852 721Z"/>
<glyph unicode="&#x41;" horiz-adv-x="1310" d="M331 1359L786 1359L1186 215L1285 215L1285 0L820 0L820 215L945 215L871 428L455 428L381 215L506 215L506 0L41 0L41 215L140 215L485 1144L331 1144L331 1359ZM524 617L802 617L664 1026L524 617Z"/>
<glyph unicode="&#x42;" horiz-adv-x="1221" d="M97 1359L625 1359C658 1359 693 1357 728 1352C763 1347 798 1339 832 1328C865 1317 897 1302 928 1284C958 1265 984 1242 1007 1215C1029 1188 1047 1155 1060 1118C1073 1081 1080 1038 1080 989C1080 964 1077 937 1072 908C1067 879 1058 851 1045 824C1032 797 1015 772 994 751C973 730 946 714 915 704C950 695 982 681 1011 664C1040 646 1065 624 1086 597C1107 570 1123 538 1135 503C1147 467 1153 427 1153 382C1153 317 1141 260 1117 212C1092 164 1059 124 1016 93C973 62 922 38 864 23C805 8 742 0 675 0L97 0L97 215L220 215L220 1144L97 1144L97 1359ZM485 585L485 215L675 215C714 215 747 220 774 231C801 242 823 256 840 273C857 290 869 309 877 331C885 353 889 376 889 399C889 424 885 447 877 470C868 493 855 513 838 530C821 547 799 560 772 570C745 580 714 585 678 585L485 585ZM485 1144L485 803L632 803C668 803 698 808 722 818C745 827 764 840 778 856C792 872 802 890 808 910C813 930 816 951 816 972C816 994 813 1015 807 1036C801 1057 791 1075 777 1091C762 1107 743 1120 718 1130C693 1139 662 1144 625 1144L485 1144Z"/>
<glyph unicode="&#x43;" horiz-adv-x="1134" d="M1060 162C1033 126 1000 94 961 66C944 54 925 42 904 31C883 20 859 10 833 1C806 -9 778 -16 747 -21C716 -26 683 -29 647 -29C558 -29 479 -12 409 22C338 56 279 104 230 166C181 228 143 302 117 389C90 475 77 570 77 675C77 780 90 877 116 965C142 1052 179 1128 226 1191C273 1254 329 1304 394 1339C459 1374 531 1391 610 1391C639 1391 666 1388 692 1381C717 1374 741 1366 763 1355C785 1344 805 1331 823 1316C840 1301 856 1286 869 1270L890 1359L1063 1359L1063 934L858 934C848 1005 825 1061 790 1100C755 1139 704 1159 639 1159C586 1159 541 1146 506 1120C470 1093 441 1058 420 1013C398 968 382 916 373 857C364 798 359 735 359 668C359 589 367 520 382 462C397 403 419 355 446 317C473 278 506 250 543 231C580 212 621 203 665 203C703 203 737 210 766 223C795 236 819 251 838 268C861 287 880 309 897 334L1060 162Z"/>
<glyph unicode="&#x44;" horiz-adv-x="1280" d="M97 1359L609 1359C674 1359 734 1351 789 1334C844 1317 893 1294 937 1264C981 1234 1020 1198 1053 1157C1086 1115 1114 1069 1137 1020C1160 970 1177 917 1188 861C1199 804 1205 746 1205 687C1205 597 1192 511 1167 428C1141 345 1103 272 1053 209C1003 145 941 94 867 57C792 19 706 0 609 0L97 0L97 215L220 215L220 1144L97 1144L97 1359ZM485 1144L485 215L598 215C623 215 648 217 673 222C698 227 723 235 747 248C770 261 792 278 813 301C834 323 852 351 867 386C882 421 895 463 904 513C913 562 917 620 917 687C917 775 907 848 888 907C869 966 844 1013 814 1048C783 1083 749 1107 711 1122C673 1137 635 1144 598 1144L485 1144Z"/>
<glyph unicode="&#x45;" horiz-adv-x="1177" d="M97 0L97 215L220 215L220 1144L97 1144L97 1359L1096 1359L1096 958L857 958L857 1144L485 1144L485 806L740 806L740 588L485 588L485 215L857 215L857 423L1096 423L1096 0L97 0Z"/>
<glyph unicode="&#x46;" horiz-adv-x="1131" d="M97 0L97 215L220 215L220 1144L97 1144L97 1359L1096 1359L1096 958L857 958L857 1144L485 1144L485 774L811 774L811 559L485 559L485 215L714 215L714 0L97 0Z"/>
<glyph unicode="&#x47;" horiz-adv-x="1291" d="M700 731L1220 731L1220 513L1131 513L1131 133C1102 110 1069 88 1034 68C999 48 961 31 922 17C882 2 841 -9 798 -17C755 -25 712 -29 669 -29C638 -29 602 -26 561 -19C520 -12 477 0 433 19C389 38 346 64 304 97C261 130 223 172 190 225C157 278 130 341 109 416C88 491 78 579 78 680C78 772 87 854 104 925C121 996 145 1058 174 1111C203 1164 236 1208 274 1244C312 1279 352 1308 393 1330C434 1352 476 1368 519 1377C561 1386 601 1391 638 1391C704 1391 762 1380 813 1358C863 1336 905 1307 938 1270L958 1359L1131 1359L1131 934L925 934C920 963 911 991 898 1018C885 1045 868 1068 847 1089C826 1110 802 1126 774 1138C745 1150 713 1156 676 1156C636 1156 597 1148 560 1132C523 1116 490 1090 461 1053C432 1016 408 967 391 906C374 845 365 770 365 680C365 591 374 516 391 455C408 394 432 344 462 307C492 270 527 243 567 227C606 211 649 203 694 203C726 203 758 207 789 216C820 225 848 237 873 252L873 513L700 513L700 731Z"/>
<glyph unicode="&#x48;" horiz-adv-x="1410" d="M800 0L800 215L923 215L923 578L485 578L485 215L609 215L609 0L97 0L97 215L220 215L220 1144L97 1144L97 1359L609 1359L609 1144L485 1144L485 793L923 793L923 1144L800 1144L800 1359L1315 1359L1315 1144L1190 1144L1190 215L1315 215L1315 0L800 0Z"/>
<glyph unicode="&#x49;" horiz-adv-x="764" d="M79 215L249 215L249 1144L79 1144L79 1359L685 1359L685 1144L515 1144L515 215L685 215L685 0L79 0L79 215Z"/>
<glyph unicode="&#x4a;" horiz-adv-x="1117" d="M1025 1144L900 1144L900 418C900 343 890 278 871 222C852 166 824 120 787 83C750 46 706 18 653 -1C600 -20 540 -29 473 -29C402 -29 336 -17 274 6C212 29 149 64 84 109L84 474L323 474L323 249C340 234 361 223 386 215C411 207 441 203 477 203C502 203 525 207 545 215C564 223 581 236 595 253C608 270 619 293 626 320C633 347 636 379 636 418L636 1144L419 1144L419 1359L1025 1359L1025 1144Z"/>
<glyph unicode="&#x4b;" horiz-adv-x="1277" d="M1245 0L938 0L579 585L483 481L483 215L583 215L583 0L97 0L97 215L220 215L220 1144L97 1144L97 1359L583 1359L583 1144L483 1144L483 769L839 1144L751 1144L751 1359L1245 1359L1245 1144L1133 1144L766 769L1108 215L1245 215L1245 0Z"/>
<glyph unicode="&#x4c;" horiz-adv-x="1142" d="M97 0L97 215L220 215L220 1144L97 1144L97 1359L609 1359L609 1144L485 1144L485 215L855 215L855 508L1093 508L1093 0L97 0Z"/>
<glyph unicode="&#x4d;" horiz-adv-x="1681" d="M1586 0L1078 0L1078 215L1202 215L1202 1079L928 455L753 455L481 1084L481 215L604 215L604 0L97 0L97 215L220 215L220 1144L97 1144L97 1359L604 1359L841 793L1078 1359L1586 1359L1586 1144L1461 1144L1461 215L1586 215L1586 0Z"/>
<glyph unicode="&#x4e;" horiz-adv-x="1474" d="M1399 1144L1276 1144L1276 0L903 0L462 1096L462 215L565 215L565 0L97 0L97 215L220 215L220 1144L97 1144L97 1359L604 1359L1032 264L1032 1144L928 1144L928 1359L1399 1359L1399 1144Z"/>
<glyph unicode="&#x4f;" horiz-adv-x="1310" d="M366 687C366 620 371 558 382 499C393 440 410 389 433 345C456 301 485 266 522 241C559 216 603 203 655 203C708 203 753 216 790 241C827 266 857 301 880 345C903 389 920 440 931 499C942 558 947 620 947 687C947 754 942 816 931 873C920 930 903 980 880 1023C857 1065 827 1098 790 1123C753 1147 708 1159 655 1159C603 1159 559 1147 522 1123C485 1098 456 1065 433 1023C410 980 393 930 382 873C371 816 366 754 366 687ZM76 687C76 747 81 806 92 864C102 922 117 977 138 1030C159 1082 185 1130 217 1174C248 1218 285 1256 328 1289C371 1321 419 1346 474 1364C529 1382 589 1391 655 1391C721 1391 781 1382 836 1364C891 1346 939 1321 982 1289C1025 1256 1062 1218 1094 1174C1125 1130 1152 1082 1173 1030C1194 977 1209 922 1219 864C1229 806 1234 747 1234 687C1234 626 1229 567 1219 508C1209 449 1194 393 1173 340C1152 287 1125 238 1094 193C1062 148 1025 109 982 76C939 43 891 18 836 -1C781 -20 721 -29 655 -29C588 -29 528 -20 474 -1C419 18 371 43 328 76C285 109 248 148 217 193C185 238 159 287 138 340C117 393 101 449 91 508C81 567 76 626 76 687Z"/>
<glyph unicode="&#x50;" horiz-adv-x="1208" d="M1143 939C1143 878 1136 826 1121 781C1106 736 1086 698 1061 667C1036 635 1006 609 973 589C939 568 903 552 866 541C829 529 790 521 751 517C711 512 673 510 636 510L484 510L484 215L608 215L608 0L95 0L95 215L220 215L220 1144L95 1144L95 1359L636 1359C674 1359 713 1357 753 1353C792 1349 831 1342 869 1331C906 1320 942 1304 975 1285C1008 1265 1037 1240 1062 1209C1087 1178 1106 1140 1121 1096C1136 1051 1143 999 1143 939ZM484 1144L484 728L636 728C685 728 725 734 756 747C787 760 811 776 828 796C845 816 857 839 863 864C869 889 872 914 872 939C872 964 869 989 863 1014C857 1038 845 1060 828 1079C811 1098 787 1114 756 1126C725 1138 685 1144 636 1144L484 1144Z"/>
<glyph unicode="&#x51;" horiz-adv-x="1364" d="M1320 0L677 0C573 0 483 18 408 54C332 89 270 138 221 200C172 262 135 335 112 419C89 502 77 592 77 687C77 746 82 805 92 863C102 921 117 976 138 1029C159 1081 185 1129 216 1174C247 1218 283 1256 326 1288C369 1320 417 1345 471 1364C524 1382 584 1391 650 1391C749 1391 836 1372 909 1333C982 1294 1043 1243 1092 1178C1140 1113 1176 1038 1200 953C1223 868 1235 780 1235 687C1235 594 1224 507 1202 426C1180 344 1146 274 1100 215L1320 215L1320 0ZM367 687C367 620 372 558 382 500C391 441 407 390 430 347C452 303 481 269 517 244C553 219 597 206 650 206C707 206 755 218 793 243C831 268 861 302 884 345C907 388 923 438 932 496C941 553 946 615 946 682C946 749 941 811 930 869C919 927 902 978 879 1021C855 1064 824 1097 787 1122C750 1147 704 1159 650 1159C604 1159 563 1147 528 1123C493 1098 463 1065 439 1023C415 980 397 930 385 873C373 816 367 754 367 687Z"/>
<glyph unicode="&#x52;" horiz-adv-x="1252" d="M1223 0L910 0L635 552C623 551 611 550 600 550C588 549 576 549 565 549L481 549L481 215L604 215L604 0L97 0L97 215L220 215L220 1144L97 1144L97 1359L625 1359C665 1359 706 1357 747 1353C788 1348 827 1340 865 1329C902 1318 938 1302 971 1283C1004 1264 1033 1239 1058 1209C1082 1179 1101 1143 1116 1101C1130 1059 1137 1010 1137 953C1137 911 1132 871 1122 834C1112 797 1097 762 1076 731C1055 700 1028 672 996 649C964 626 926 607 883 593L1082 215L1223 215L1223 0ZM481 1144L481 764L632 764C679 764 717 769 747 779C777 789 801 803 819 820C836 837 849 858 856 881C863 904 866 929 866 956C866 982 863 1006 856 1029C849 1052 836 1072 818 1089C800 1106 775 1119 744 1129C713 1139 673 1144 625 1144L481 1144Z"/>
<glyph unicode="&#x53;" horiz-adv-x="1136" d="M1023 1359L1023 934L795 934C790 977 779 1016 760 1050C752 1065 742 1079 731 1093C719 1106 705 1119 688 1130C671 1141 652 1149 630 1156C608 1163 583 1166 554 1166C525 1166 499 1163 476 1157C452 1151 432 1142 415 1130C398 1117 386 1101 377 1082C368 1062 363 1038 363 1011C363 971 373 938 393 913C413 887 439 865 472 848C505 830 542 814 583 801C604 795 625 788 646 781C667 774 689 767 711 760C754 746 797 730 839 711C880 692 917 667 950 638C983 608 1009 571 1029 527C1049 483 1059 429 1059 365C1059 296 1048 236 1027 187C1005 137 975 96 938 64C900 32 856 9 805 -7C754 -22 700 -29 643 -29C599 -29 560 -25 527 -18C493 -10 463 0 438 13C412 25 390 39 371 54C352 69 336 84 322 99L299 0L102 0L102 406L327 406C338 367 356 331 379 300C389 287 401 274 415 261C428 248 444 237 463 227C481 217 502 209 525 203C548 197 573 194 601 194C624 194 647 197 669 203C690 208 709 217 726 229C742 241 755 257 765 276C774 295 779 319 779 346C779 382 769 411 749 434C729 457 703 476 670 492C637 508 600 522 558 534C537 540 517 546 496 553C475 560 453 568 431 575C388 590 345 608 304 629C262 650 225 677 192 710C159 743 133 783 113 832C93 880 83 939 83 1009C83 1063 93 1113 112 1160C131 1206 158 1246 194 1280C230 1314 275 1341 328 1360C381 1379 441 1389 509 1389C563 1389 617 1379 670 1360C723 1340 769 1310 810 1270L834 1359L1023 1359Z"/>
<glyph unicode="&#x54;" horiz-adv-x="1250" d="M327 215L493 215L493 1144L286 1144L265 784L49 798L90 1359L1159 1359L1203 798L987 784L964 1144L757 1144L757 215L923 215L923 0L327 0L327 215Z"/>
<glyph unicode="&#x55;" horiz-adv-x="1347" d="M770 1359L1282 1359L1282 1144L1159 1144L1159 464C1159 394 1150 329 1132 269C1113 209 1084 157 1045 113C1006 68 955 34 894 9C832 -17 758 -29 671 -29C584 -29 511 -17 450 9C389 34 339 68 300 113C261 157 233 209 216 269C198 329 189 394 189 464L189 1144L64 1144L64 1359L577 1359L577 1144L453 1144L453 464C453 410 459 366 472 332C485 298 501 272 522 253C542 234 565 221 591 214C617 207 644 203 671 203C698 203 724 207 751 214C778 221 802 234 823 253C844 272 862 298 875 332C888 366 894 410 894 464L894 1144L770 1144L770 1359Z"/>
<glyph unicode="&#x56;" horiz-adv-x="1291" d="M779 1359L1255 1359L1255 1144L1140 1144L803 -2L487 -2L152 1144L35 1144L35 1359L510 1359L510 1144L405 1144L646 242L885 1144L779 1144L779 1359Z"/>
<glyph unicode="&#x57;" horiz-adv-x="1735" d="M1697 1144L1593 1144L1361 -2L1049 -2L867 714L686 -2L373 -2L143 1144L38 1144L38 1359L527 1359L527 1144L398 1144L550 230L736 1055L999 1055L1185 227L1336 1144L1207 1144L1207 1359L1697 1359L1697 1144Z"/>
<glyph unicode="&#x58;" horiz-adv-x="1254" d="M1209 0L712 0L712 215L817 215L627 539L437 215L542 215L542 0L46 0L46 215L150 215L450 677L150 1144L46 1144L46 1359L542 1359L542 1144L450 1144L627 832L817 1144L712 1144L712 1359L1209 1359L1209 1144L1105 1144L802 699L1105 215L1209 215L1209 0Z"/>
<glyph unicode="&#x59;" horiz-adv-x="1248" d="M747 1359L1208 1359L1208 1144L1110 1144L758 493L758 215L940 215L940 0L310 0L310 215L491 215L491 491L140 1144L39 1144L39 1359L514 1359L514 1144L423 1144L625 731L839 1144L747 1144L747 1359Z"/>
<glyph unicode="&#x5a;" horiz-adv-x="1086" d="M995 0L83 0L83 184L674 1144L334 1144L334 958L95 958L95 1359L993 1359L993 1176L402 215L759 215L759 423L995 423L995 0Z"/>
<glyph unicode="&#x5b;" horiz-adv-x="653" d="M583 -433L156 -433L156 1359L583 1359L583 1154L395 1154L395 -227L583 -227L583 -433Z"/>
<glyph unicode="&#x5c;" horiz-adv-x="850" d="M659 -312L69 1391L290 1391L873 -312L659 -312Z"/>
<glyph unicode="&#x5d;" horiz-adv-x="653" d="M70 -227L258 -227L258 1154L70 1154L70 1359L497 1359L497 -433L70 -433L70 -227Z"/>
<glyph unicode="&#x5e;" horiz-adv-x="1103" d="M69 1043L552 1613L1035 1043L852 883L552 1251C545 1243 536 1232 524 1217C512 1202 498 1186 483 1167C468 1148 451 1127 434 1106C417 1085 399 1064 382 1043C341 994 298 940 251 883L69 1043Z"/>
<glyph unicode="&#x5f;" horiz-adv-x="1576" d="M1393 -452L184 -452L184 -247L1393 -247L1393 -452Z"/>
<glyph unicode="&#x60;" horiz-adv-x="682" d="M565 1287L338 1287L34 1650L306 1650L565 1287Z"/>
<glyph unicode="&#x61;" horiz-adv-x="1098" d="M1048 0L708 0L687 90C673 75 656 61 637 47C617 32 595 20 571 9C546 -3 520 -12 492 -19C463 -26 433 -29 402 -29C350 -29 303 -21 262 -6C220 10 185 33 156 64C127 94 105 132 90 177C75 222 67 275 67 334C67 398 79 451 103 494C127 536 158 570 195 595C232 620 272 637 315 648C358 658 400 663 439 663L665 663L665 721C665 754 659 781 648 802C637 823 621 840 601 853C581 866 557 875 529 880C501 885 470 888 437 888C402 888 369 885 339 880C308 874 282 867 260 860C233 852 210 843 189 832L129 1030C162 1041 197 1051 234 1060C265 1067 300 1074 339 1081C377 1088 415 1091 453 1091C515 1091 574 1085 631 1073C688 1060 738 1038 782 1007C825 975 860 932 886 878C911 824 924 755 924 672L924 206L1048 206L1048 0ZM456 181C474 181 492 184 511 189C530 194 548 201 567 210C585 219 603 229 620 240C637 251 652 262 665 273L665 469L519 469C490 469 464 467 439 462C414 457 392 448 373 437C354 425 340 409 329 390C318 370 313 346 313 317C313 272 326 238 353 215C380 192 414 181 456 181Z"/>
<glyph unicode="&#x62;" horiz-adv-x="1235" d="M737 1091C769 1091 802 1088 835 1081C868 1074 900 1062 931 1045C962 1028 992 1006 1019 979C1046 951 1070 917 1091 876C1112 835 1128 786 1140 730C1152 674 1158 610 1158 537C1158 464 1152 399 1140 343C1128 286 1112 237 1091 196C1070 154 1046 119 1019 90C992 61 962 38 931 21C900 3 868 -10 835 -18C802 -25 769 -29 737 -29C716 -29 693 -27 667 -22C640 -17 614 -8 587 4C560 15 534 30 509 49C484 67 462 89 443 116L423 0L64 0L64 206L188 206L188 1294L71 1287L60 1490L448 1519L448 929C466 958 487 983 510 1004C533 1025 558 1042 583 1055C608 1068 634 1077 661 1083C687 1088 712 1091 737 1091ZM670 876C641 876 613 870 586 859C558 847 533 828 512 801C490 774 472 739 459 696C446 653 439 600 439 537C439 474 446 420 459 375C472 330 490 294 512 266C533 238 558 218 586 205C613 192 641 186 670 186C698 186 726 193 754 206C781 219 806 239 828 267C849 295 867 331 880 376C893 420 900 474 900 537C900 600 893 653 880 696C867 739 849 774 828 801C806 828 781 847 754 859C726 870 698 876 670 876Z"/>
<glyph unicode="&#x63;" horiz-adv-x="1029" d="M963 169C949 152 932 132 911 109C890 86 863 64 831 44C798 23 759 6 714 -8C669 -22 615 -29 552 -29C490 -29 430 -17 373 8C315 32 264 68 220 115C175 162 140 220 113 290C86 359 73 439 73 530C73 603 83 673 103 741C123 808 153 868 192 920C231 972 279 1014 336 1045C393 1076 458 1091 531 1091C574 1091 611 1086 641 1077C670 1068 694 1057 713 1046C735 1033 753 1018 766 1001L781 1062L940 1062L940 675L753 675C752 694 748 715 742 738C736 761 726 783 712 804C697 824 678 841 653 855C628 869 597 876 559 876C522 876 489 868 461 852C433 836 410 813 391 783C372 753 357 717 348 674C338 631 333 583 333 530C333 477 339 429 351 387C363 344 380 308 402 279C423 249 449 226 480 210C510 194 543 186 579 186C622 186 664 198 703 222C742 245 777 276 807 314L963 169Z"/>
<glyph unicode="&#x64;" horiz-adv-x="1237" d="M497 1091C522 1091 547 1088 574 1083C601 1077 627 1068 653 1055C679 1042 704 1025 727 1004C750 983 771 958 789 929L789 1294L568 1280L559 1485L1049 1519L1049 206L1172 206L1172 0L810 0L789 133C770 100 750 73 727 52C704 31 679 14 654 2C628 -10 602 -18 575 -23C548 -27 522 -29 497 -29C467 -29 436 -25 404 -17C371 -9 339 4 308 22C277 40 247 64 219 93C191 122 166 157 145 198C124 239 107 288 95 343C82 398 76 460 76 530C76 600 82 663 95 718C107 773 124 821 145 863C166 904 191 940 219 969C247 998 277 1021 308 1039C339 1057 370 1070 403 1079C436 1087 467 1091 497 1091ZM563 876C533 876 504 869 477 856C449 842 425 821 404 793C383 764 367 728 355 685C342 642 336 590 336 530C336 470 342 418 355 375C367 332 384 296 405 268C426 240 450 219 477 206C504 193 533 186 563 186C594 186 623 193 652 206C680 219 705 240 727 268C748 296 766 332 779 375C792 418 798 470 798 530C798 589 792 641 779 684C766 727 749 763 728 792C706 821 681 842 653 856C624 869 594 876 563 876Z"/>
<glyph unicode="&#x65;" horiz-adv-x="1092" d="M1004 162C985 136 961 112 934 89C907 66 876 45 841 28C806 11 767 -3 726 -14C684 -24 639 -29 591 -29C524 -29 464 -21 413 -5C361 12 316 34 278 62C239 90 207 123 181 161C155 198 134 238 118 281C102 323 91 367 84 412C77 457 73 501 73 544C73 584 76 626 83 669C90 712 101 753 116 794C131 834 151 872 176 908C200 944 230 976 266 1003C301 1030 343 1052 391 1068C438 1083 493 1091 554 1091C621 1091 680 1081 729 1062C778 1043 820 1017 855 985C889 953 917 916 938 874C959 832 976 788 988 742C1000 696 1008 650 1012 603C1016 556 1018 513 1018 472L1018 440L347 440C348 389 357 347 375 314C393 281 415 256 441 237C467 218 495 204 524 197C553 190 580 186 604 186C647 186 690 197 731 218C772 239 810 271 844 312L1004 162ZM554 876C485 876 433 855 399 812C364 769 347 710 347 636L750 636C750 710 734 769 703 812C672 855 622 876 554 876Z"/>
<glyph unicode="&#x66;" horiz-adv-x="761" d="M86 1062L210 1062L210 1176C210 1238 219 1291 237 1334C254 1377 279 1413 311 1441C343 1468 382 1488 427 1501C472 1513 523 1519 578 1519C600 1519 623 1518 648 1515C673 1512 696 1509 717 1506C738 1503 755 1500 769 1497C783 1494 790 1493 791 1493L764 1299C742 1302 722 1305 705 1307C688 1309 672 1311 657 1312C642 1313 627 1313 614 1314C601 1314 587 1314 573 1314C560 1314 548 1312 536 1309C523 1305 512 1299 502 1290C492 1281 484 1268 478 1253C472 1237 469 1217 469 1193L469 1062L702 1062L702 856L469 856L469 206L699 206L699 0L86 0L86 206L210 206L210 856L86 856L86 1062Z"/>
<glyph unicode="&#x67;" horiz-adv-x="1217" d="M487 1091C506 1091 527 1089 552 1086C576 1083 601 1076 628 1065C655 1054 682 1038 710 1018C737 997 764 970 790 936L790 1062L1153 1062L1153 856L1029 856L1029 19C1029 -70 1013 -144 982 -203C950 -261 908 -307 856 -341C804 -375 745 -399 679 -413C613 -426 546 -433 477 -433L229 -433L229 -227L482 -227C541 -227 589 -220 627 -205C664 -190 694 -169 715 -144C736 -119 750 -89 758 -56C766 -23 770 12 770 48L770 133C756 108 738 87 716 70C694 53 670 39 645 28C620 17 593 10 566 5C538 0 512 -2 487 -2C460 -2 432 2 401 9C370 16 340 27 310 44C279 60 250 82 222 109C194 136 169 169 148 210C126 251 109 299 96 354C83 409 77 472 77 544C77 616 84 680 97 735C110 790 127 837 148 878C169 918 194 952 222 979C250 1006 279 1028 310 1045C341 1062 371 1074 402 1081C432 1088 460 1091 487 1091ZM571 876C538 876 507 869 479 856C450 843 426 822 405 795C384 767 367 732 355 691C343 649 337 600 337 544C337 488 343 440 355 400C367 359 384 326 405 301C426 276 450 257 479 245C507 233 538 227 571 227C604 227 635 233 663 244C691 255 715 274 735 299C755 324 771 357 782 398C793 438 799 487 799 544C799 600 794 649 783 690C772 731 756 766 736 794C716 821 692 842 664 856C636 869 605 876 571 876Z"/>
<glyph unicode="&#x68;" horiz-adv-x="1251" d="M65 206L188 206L188 1294L65 1284L46 1488L446 1519L446 968C481 1004 523 1034 572 1057C621 1080 674 1091 729 1091C781 1091 828 1084 870 1071C911 1057 947 1033 976 998C1005 963 1027 914 1043 853C1058 792 1066 714 1066 619L1066 206L1190 206L1190 0L703 0L703 206L807 206L807 619C807 652 806 683 804 712C802 741 796 766 787 788C777 810 762 827 743 840C723 853 695 859 659 859C631 859 605 855 580 847C555 838 533 829 514 818C495 807 479 797 467 788C455 778 448 772 446 769L446 206L549 206L549 0L65 0L65 206Z"/>
<glyph unicode="&#x69;" horiz-adv-x="666" d="M84 206L215 206L215 856L84 856L84 1062L472 1062L472 206L603 206L603 0L84 0L84 206ZM465 1287L201 1287L201 1558L465 1558L465 1287Z"/>
<glyph unicode="&#x6a;" horiz-adv-x="666" d="M-122 -227L30 -227C101 -227 155 -205 190 -161C225 -117 243 -46 243 51L243 856L46 856L46 1062L503 1062L503 75C503 -18 493 -97 472 -162C451 -227 422 -279 384 -319C345 -359 299 -388 244 -406C189 -424 128 -433 59 -433L-122 -433L-122 -227ZM506 1287L241 1287L241 1558L506 1558L506 1287Z"/>
<glyph unicode="&#x6b;" horiz-adv-x="1146" d="M824 0L551 435L448 339L448 0L64 0L64 206L188 206L188 1294L71 1287L60 1490L448 1519L448 597L705 856L633 856L633 1062L1075 1062L1075 856L990 856L717 593L972 206L1080 206L1080 0L824 0Z"/>
<glyph unicode="&#x6c;" horiz-adv-x="682" d="M634 206L634 0L64 0L64 206L219 206L219 1294L54 1284L43 1488L477 1519L477 206L634 206Z"/>
<glyph unicode="&#x6d;" horiz-adv-x="1734" d="M86 206L210 206L210 856L86 856L86 1062L445 1062L458 968C493 1004 535 1034 584 1057C633 1080 687 1091 748 1091C777 1091 803 1088 825 1081C846 1074 865 1064 881 1053C897 1042 911 1029 922 1016C933 1002 942 988 950 975C961 984 975 995 993 1008C1010 1021 1031 1034 1056 1047C1081 1059 1109 1069 1142 1078C1174 1087 1210 1091 1249 1091C1299 1091 1343 1082 1382 1065C1421 1048 1453 1024 1479 995C1505 965 1525 930 1539 890C1552 850 1559 807 1559 762L1559 206L1663 206L1663 0L1300 0L1300 677C1300 705 1299 731 1298 756C1296 780 1291 801 1284 819C1277 836 1265 850 1250 861C1235 871 1214 876 1187 876C1168 876 1148 872 1128 864C1107 856 1088 847 1071 838C1054 829 1039 820 1028 812C1017 803 1011 799 1010 798C1011 787 1012 777 1013 770C1014 762 1014 755 1015 749C1015 742 1015 736 1015 729C1015 722 1015 714 1015 704L1015 206L1118 206L1118 0L757 0L757 704C757 731 756 755 753 776C750 797 744 815 736 830C727 845 716 856 701 864C686 872 667 876 644 876C625 876 605 872 584 864C563 855 544 846 527 836C507 824 488 811 469 796L469 206L573 206L573 0L86 0L86 206Z"/>
<glyph unicode="&#x6e;" horiz-adv-x="1273" d="M86 206L210 206L210 856L86 856L86 1062L429 1062L449 948C537 1043 638 1091 751 1091C803 1091 850 1084 892 1071C933 1057 969 1033 998 998C1027 963 1049 914 1065 853C1080 792 1088 714 1088 619L1088 206L1212 206L1212 0L725 0L725 206L828 206L828 619C828 652 827 683 825 712C823 741 817 766 808 788C799 810 784 827 765 840C745 853 717 859 681 859C658 859 636 856 616 851C596 845 577 838 560 829C543 820 527 810 512 800C497 789 482 779 469 769L469 206L573 206L573 0L86 0L86 206Z"/>
<glyph unicode="&#x6f;" horiz-adv-x="1103" d="M552 876C521 876 492 869 465 856C438 843 415 822 396 794C377 766 361 730 350 687C339 643 333 591 333 530C333 469 339 416 350 373C361 330 377 294 396 267C415 239 438 219 465 206C492 193 521 186 552 186C584 186 613 193 640 206C667 219 690 239 709 267C728 294 742 330 753 373C764 416 769 469 769 530C769 591 764 643 753 687C742 730 726 766 707 794C687 822 664 843 638 856C611 869 583 876 552 876ZM552 1091C621 1091 684 1078 743 1051C801 1024 851 985 894 936C937 887 970 828 994 759C1018 690 1030 613 1030 530C1030 447 1018 371 994 302C970 233 937 175 894 126C851 77 801 39 743 12C684 -16 621 -29 552 -29C483 -29 419 -16 360 12C301 39 251 77 209 126C166 175 133 233 109 302C85 371 73 447 73 530C73 613 85 690 109 759C133 828 166 887 209 936C251 985 301 1024 360 1051C419 1078 483 1091 552 1091Z"/>
<glyph unicode="&#x70;" horiz-adv-x="1235" d="M739 -29C714 -29 688 -26 661 -21C634 -15 608 -6 583 8C557 21 532 37 509 58C486 79 465 104 447 133L447 -227L572 -227L572 -433L64 -433L64 -227L188 -227L188 856L64 856L64 1062L447 1062L447 929C465 958 485 982 508 1003C531 1024 555 1041 580 1054C605 1067 631 1076 658 1082C685 1088 711 1091 737 1091C768 1091 801 1088 834 1081C867 1074 899 1062 930 1045C961 1028 990 1006 1018 979C1046 951 1070 917 1091 876C1112 835 1128 786 1140 730C1152 674 1158 610 1158 537C1158 464 1152 399 1140 343C1128 286 1112 237 1092 196C1071 154 1047 119 1020 90C992 61 963 38 932 21C901 3 869 -10 836 -18C803 -25 770 -29 739 -29ZM668 186C696 186 724 192 752 205C779 218 804 238 826 266C847 294 865 330 878 375C891 420 898 474 898 537C898 600 891 654 878 697C865 740 847 775 826 802C804 828 780 847 753 859C726 870 698 876 671 876C642 876 614 870 586 859C558 847 533 828 511 801C489 774 471 739 458 696C445 653 438 600 438 537C438 475 445 422 458 378C471 333 489 297 511 269C533 240 558 219 585 206C612 193 640 186 668 186Z"/>
<glyph unicode="&#x71;" horiz-adv-x="1236" d="M497 -29C467 -29 436 -25 403 -17C370 -8 339 5 308 23C277 41 247 65 219 94C191 123 166 158 145 199C124 240 107 288 95 343C82 398 76 460 76 530C76 600 82 663 95 718C107 773 124 821 145 863C166 904 191 940 219 969C247 998 277 1021 308 1039C339 1057 371 1070 404 1079C436 1087 467 1091 497 1091C522 1091 548 1088 575 1083C602 1077 628 1068 654 1055C679 1042 704 1025 727 1004C750 983 770 958 789 929L789 1062L1172 1062L1172 856L1049 856L1049 -227L1172 -227L1172 -433L665 -433L665 -227L789 -227L789 133C772 100 751 73 728 52C705 31 680 14 654 2C628 -10 602 -18 575 -23C548 -27 522 -29 497 -29ZM563 186C594 186 623 193 652 206C680 219 705 240 727 268C748 296 766 332 779 375C792 418 798 470 798 530C798 591 792 643 779 687C766 730 748 766 727 794C705 822 680 843 652 856C623 869 594 876 563 876C534 876 506 869 479 856C452 843 427 822 406 794C385 766 368 730 355 687C342 643 336 591 336 530C336 471 342 419 355 376C367 333 383 297 404 269C425 241 449 220 477 207C504 193 533 186 563 186Z"/>
<glyph unicode="&#x72;" horiz-adv-x="876" d="M86 1062L430 1062L451 956C476 982 500 1004 523 1021C545 1038 567 1052 589 1063C610 1073 632 1080 653 1085C674 1089 697 1091 720 1091C742 1091 762 1089 780 1086C797 1082 812 1078 825 1074C840 1069 852 1063 863 1057L791 835C779 840 767 845 755 849C744 852 732 856 719 859C706 862 692 864 679 864C646 864 618 858 593 845C568 832 546 817 529 801C511 784 497 769 488 754C478 739 472 731 469 728L469 206L713 206L713 0L86 0L86 206L210 206L210 856L86 856L86 1062Z"/>
<glyph unicode="&#x73;" horiz-adv-x="1004" d="M878 1062L878 747L704 747C697 772 684 794 666 814C651 831 628 846 598 860C568 874 528 881 478 881C447 881 422 877 403 870C384 863 370 854 360 844C350 833 344 822 341 811C338 800 336 790 336 781C336 758 340 739 349 726C357 712 370 701 389 692C407 683 431 676 460 670C489 663 524 656 566 648C595 642 625 636 655 629C684 622 713 614 740 603C767 592 792 579 816 564C839 549 860 530 877 508C894 485 907 459 917 428C927 397 932 360 932 319C932 254 921 199 900 155C879 110 851 74 816 47C781 20 742 0 697 -12C652 -23 606 -29 559 -29C528 -29 497 -26 468 -20C439 -14 411 -6 385 4C359 14 336 25 315 38C294 51 277 64 263 77L242 0L88 0L88 317L263 317C276 292 295 269 318 249C338 232 365 216 399 202C432 188 474 181 525 181C572 181 609 189 635 206C661 223 674 250 674 288C674 309 670 327 663 340C656 353 644 364 628 373C611 382 590 389 564 395C538 401 507 408 470 415C427 423 383 433 338 446C293 458 253 476 217 501C180 526 151 559 128 600C105 641 93 695 93 762C93 797 98 833 107 872C116 910 134 945 160 978C186 1011 222 1038 268 1059C314 1080 374 1091 447 1091C480 1091 509 1089 534 1084C559 1079 582 1073 603 1065C624 1056 642 1046 659 1035C675 1023 690 1010 704 997L724 1062L878 1062Z"/>
<glyph unicode="&#x74;" horiz-adv-x="822" d="M140 1359L400 1359L400 1062L705 1062L705 856L400 856L400 370C400 336 403 308 409 287C414 266 422 249 432 236C442 223 454 215 468 210C481 205 496 203 513 203C584 203 652 219 715 252L767 48C704 20 648 0 598 -12C548 -23 503 -29 464 -29C401 -29 349 -19 308 0C266 19 233 46 208 80C183 113 166 152 156 197C145 242 140 289 140 339L140 1359Z"/>
<glyph unicode="&#x75;" horiz-adv-x="1250" d="M1061 206L1186 206L1186 0L843 0L823 116C806 97 787 79 767 62C746 45 724 29 699 16C674 2 648 -9 619 -17C590 -25 558 -29 524 -29C471 -29 424 -22 382 -7C340 8 304 33 275 69C245 104 222 152 207 212C191 272 183 347 183 438L183 856L59 856L59 1062L443 1062L443 423C443 395 444 367 446 339C447 310 453 285 462 262C471 239 485 221 505 207C524 193 552 186 588 186C618 186 646 191 672 201C698 211 721 222 740 234C762 248 783 264 802 283L802 856L677 856L677 1062L1061 1062L1061 206Z"/>
<glyph unicode="&#x76;" horiz-adv-x="1166" d="M680 1062L1116 1062L1116 856L1022 856L724 -2L443 -2L144 856L50 856L50 1062L489 1062L489 856L381 856L583 230L785 856L680 856L680 1062Z"/>
<glyph unicode="&#x77;" horiz-adv-x="1541" d="M888 847L1056 227L1166 856L1065 856L1065 1062L1492 1062L1492 856L1400 856L1212 -2L916 -2L771 525L629 -2L329 -2L143 856L49 856L49 1062L481 1062L481 856L376 856L488 227L656 847L888 847Z"/>
<glyph unicode="&#x78;" horiz-adv-x="1113" d="M1037 0L629 0L629 206L705 206L558 448L406 206L484 206L484 0L75 0L75 206L153 206L385 532L155 856L80 856L80 1062L484 1062L484 856L408 856L558 634L705 856L634 856L634 1062L1034 1062L1034 856L959 856L728 537L959 206L1037 206L1037 0Z"/>
<glyph unicode="&#x79;" horiz-adv-x="1215" d="M1175 856L1092 856L593 -227L725 -227L725 -433L175 -433L175 -227L357 -227L491 70L132 856L49 856L49 1062L498 1062L498 856L389 856L617 341L851 856L745 856L745 1062L1175 1062L1175 856Z"/>
<glyph unicode="&#x7a;" horiz-adv-x="996" d="M905 0L89 0L89 172L620 856L292 856L292 697L92 697L92 1062L905 1062L905 888L379 206L706 206L706 365L905 365L905 0Z"/>
<glyph unicode="&#x7b;" horiz-adv-x="735" d="M669 1144L636 1144C618 1144 599 1142 580 1137C560 1132 542 1121 525 1106C508 1091 494 1069 483 1041C472 1013 466 976 466 929L466 723C466 706 465 686 464 662C462 637 457 613 448 588C439 563 426 539 409 516C392 493 367 475 335 462C367 448 392 430 409 407C426 384 439 361 448 336C457 311 462 287 464 263C465 238 466 218 466 201L466 -5C466 -51 472 -89 483 -118C494 -147 508 -169 525 -185C542 -201 560 -212 580 -218C599 -224 618 -227 636 -227L669 -227L669 -433L614 -433C592 -433 568 -431 542 -427C515 -423 488 -416 461 -406C434 -395 407 -381 382 -364C357 -346 334 -324 314 -297C294 -270 278 -237 266 -200C254 -163 248 -119 248 -70L248 119C248 154 247 186 244 215C241 244 232 268 218 288C204 308 182 324 153 335C123 346 82 351 29 351L29 573C82 575 123 582 153 594C182 605 204 621 218 642C232 662 241 686 244 715C247 743 248 775 248 810L248 997C248 1047 254 1091 267 1129C279 1166 295 1198 316 1225C337 1252 360 1274 387 1291C413 1308 440 1322 468 1332C495 1342 523 1349 550 1353C577 1357 601 1359 623 1359L669 1359L669 1144Z"/>
<glyph unicode="&#x7c;" horiz-adv-x="604" d="M421 -302L184 -302L184 1391L421 1391L421 -302Z"/>
<glyph unicode="&#x7d;" horiz-adv-x="735" d="M66 1359L112 1359C134 1359 159 1357 186 1353C213 1349 240 1342 268 1332C295 1322 322 1308 349 1291C375 1274 398 1252 419 1225C440 1198 456 1166 469 1129C481 1091 487 1047 487 997L487 810C487 775 489 743 492 715C495 686 503 662 517 642C531 621 553 605 582 594C611 582 653 575 706 573L706 351C653 351 611 346 582 335C553 324 531 308 517 288C503 268 495 244 492 215C489 186 487 154 487 119L487 -70C487 -120 481 -164 469 -201C457 -238 441 -270 421 -297C401 -324 378 -346 353 -364C328 -381 301 -395 274 -406C247 -416 220 -423 194 -427C167 -431 143 -433 121 -433L66 -433L66 -227L99 -227C117 -227 136 -224 156 -218C175 -212 194 -201 211 -185C228 -169 242 -147 253 -118C264 -89 269 -51 269 -5L269 201C269 218 270 238 272 263C273 287 278 311 287 336C296 361 309 384 326 407C343 430 368 448 400 462C368 475 343 493 326 516C309 539 296 563 287 588C278 613 273 637 272 662C270 686 269 706 269 723L269 929C269 976 264 1013 253 1041C242 1069 228 1091 211 1106C194 1121 175 1132 156 1137C136 1142 117 1144 99 1144L66 1144L66 1359Z"/>
<glyph unicode="&#x7e;" horiz-adv-x="1117" d="M32 658C46 696 66 730 93 761C104 774 118 786 134 799C149 811 167 822 187 832C207 841 230 849 255 855C280 861 307 864 338 864C381 864 420 856 454 840C488 824 520 806 550 787C580 767 610 749 639 733C668 717 700 709 735 709C762 709 786 715 807 728C828 740 845 754 859 769C876 786 890 807 901 830L1064 721C1041 682 1013 648 981 617C968 604 953 591 936 579C919 566 901 555 882 546C863 536 842 528 820 522C798 516 775 513 750 513C718 513 690 517 665 525C640 532 617 542 596 554C575 565 554 578 535 592C516 605 496 618 477 630C457 641 436 651 414 659C391 666 366 670 338 670C307 670 281 664 261 652C241 639 225 626 214 611C201 594 191 574 184 552L32 658Z"/>
<glyph unicode="&#xa0;" horiz-adv-x="549" />
<glyph unicode="&#xa1;" horiz-adv-x="616" d="M209 858L409 858L450 5L168 5L209 858ZM450 1059L163 1059L163 1364L450 1364L450 1059Z"/>
<glyph unicode="&#xa2;" horiz-adv-x="1041" d="M638 1077C661 1070 681 1063 697 1055C712 1046 725 1038 736 1030C748 1021 758 1011 766 1001L781 1062L940 1062L940 675L753 675C752 694 748 715 742 738C736 761 726 783 712 804C697 824 678 841 653 855C628 869 597 876 559 876C522 876 489 868 461 852C433 836 410 813 391 783C372 753 357 717 348 674C338 631 333 583 333 530C333 477 339 429 351 387C363 344 380 308 402 279C423 249 449 226 480 210C510 194 543 186 579 186C622 186 664 198 703 222C742 245 777 276 807 314L963 169C951 154 936 136 919 117C901 97 879 78 854 59C828 40 797 24 762 9C727 -7 685 -17 638 -23L638 -295L423 -295L423 -10C374 4 329 26 287 56C244 85 207 123 176 169C144 214 119 267 101 328C82 388 73 455 73 530C73 593 81 655 96 715C111 774 134 829 164 878C193 927 230 969 273 1004C316 1039 366 1063 423 1078L423 1359L638 1359L638 1077Z"/>
<glyph unicode="&#xa3;" horiz-adv-x="1117" d="M740 627L446 627L446 206L816 206L816 431L1054 431L1054 0L62 0L62 206L186 206L186 627L62 627L62 832L186 832L186 960C186 1040 199 1106 226 1159C252 1212 286 1254 329 1285C371 1316 419 1337 473 1350C526 1363 580 1369 635 1369L740 1369L740 1164L675 1164C632 1164 595 1160 566 1153C537 1146 513 1134 496 1118C478 1102 465 1081 458 1055C450 1029 446 997 446 960L446 832L740 832L740 627Z"/>
<glyph unicode="&#xa4;" horiz-adv-x="1225" d="M841 298C807 275 771 257 734 244C696 231 655 225 611 225C568 225 528 231 489 244C450 257 414 275 382 298L196 104L76 230L259 426C238 460 221 498 209 539C197 580 191 623 191 668C191 713 197 755 209 796C221 836 238 873 259 907L76 1105L196 1231L382 1035C414 1058 450 1077 489 1090C528 1103 568 1110 611 1110C655 1110 696 1103 734 1090C771 1077 807 1058 841 1035L1027 1231L1147 1105L963 907C985 873 1002 836 1014 796C1026 755 1032 713 1032 668C1032 623 1026 580 1014 539C1002 498 985 460 963 426L1147 230L1027 104L841 298ZM384 668C384 635 390 604 402 575C413 546 429 520 450 499C471 477 495 460 523 447C550 434 580 428 611 428C642 428 671 434 699 447C726 460 751 477 772 499C793 520 809 546 821 575C833 604 839 635 839 668C839 701 833 731 821 760C809 789 793 814 772 835C751 856 726 873 699 886C671 899 642 905 611 905C580 905 550 899 523 886C495 873 471 856 450 835C429 814 413 789 402 760C390 731 384 701 384 668Z"/>
<glyph unicode="&#xa5;" horiz-adv-x="1245" d="M1020 668L850 668L779 542L1018 542L1018 402L756 402L756 215L938 215L938 0L308 0L308 215L489 215L489 402L223 402L223 542L462 542L393 668L225 668L225 808L317 808L138 1144L37 1144L37 1359L512 1359L512 1144L421 1144L623 731L837 1144L745 1144L745 1359L1206 1359L1206 1144L1108 1144L923 808L1020 808L1020 668Z"/>
<glyph unicode="&#xa6;" horiz-adv-x="604" d="M421 842L184 842L184 1389L421 1389L421 842ZM421 0L184 0L184 547L421 547L421 0Z"/>
<glyph unicode="&#xa7;" horiz-adv-x="1020" d="M319 -31L319 -186C347 -207 377 -222 409 -231C441 -240 475 -244 510 -244C575 -244 623 -232 655 -207C687 -182 703 -149 703 -106C703 -76 694 -50 676 -27C658 -4 627 17 583 36L322 148C277 167 239 190 208 216C177 242 151 270 132 299C113 328 99 359 90 390C81 421 76 452 76 481C76 514 80 544 89 572C97 600 108 625 123 648C137 671 154 691 174 708C193 725 214 740 237 752C208 773 183 796 164 820C144 843 128 868 116 893C104 918 96 944 91 971C86 997 83 1023 83 1050C83 1086 90 1124 103 1164C116 1203 139 1240 170 1273C201 1306 242 1334 293 1356C344 1378 408 1389 483 1389C534 1389 578 1385 617 1378C656 1371 690 1362 720 1351C750 1340 777 1328 800 1316C823 1303 845 1292 865 1282L865 975L653 975L653 1159C605 1184 551 1197 492 1197C433 1197 388 1184 357 1157C326 1130 311 1095 311 1050C311 1020 320 993 339 970C358 947 386 926 423 907L701 767C737 749 770 728 801 705C831 682 857 656 879 628C900 600 917 570 929 537C941 504 947 470 947 433C947 391 942 355 931 326C920 297 907 272 892 252C876 231 859 215 842 203C825 190 809 180 795 172C845 137 881 97 904 54C927 11 938 -40 938 -97C938 -162 927 -216 905 -259C883 -302 853 -336 815 -362C776 -388 731 -406 679 -417C626 -428 570 -433 510 -433C464 -433 421 -428 380 -419C339 -410 302 -398 268 -384C234 -369 203 -353 176 -336C148 -319 124 -302 104 -285L104 -31L319 -31ZM411 663C393 655 377 645 363 632C348 619 336 606 326 591C316 576 309 561 304 546C299 531 296 516 296 503C296 481 300 462 309 445C317 428 328 414 342 402C356 389 372 378 391 368C409 358 428 348 448 339L635 252C647 258 659 265 671 274C682 283 693 293 703 305C712 316 720 330 726 345C732 360 735 378 735 397C735 412 734 426 731 440C728 454 722 467 714 480C705 493 694 505 679 518C664 530 644 542 620 554L411 663Z"/>
<glyph unicode="&#xa8;" horiz-adv-x="1066" d="M429 1287L163 1287L163 1558L429 1558L429 1287ZM903 1287L636 1287L636 1558L903 1558L903 1287Z"/>
<glyph unicode="&#xa9;" horiz-adv-x="1532" d="M89 680C89 746 97 809 113 870C129 931 152 987 181 1040C210 1093 246 1141 287 1184C328 1227 373 1264 423 1295C473 1326 527 1349 585 1366C643 1383 703 1391 766 1391C829 1391 889 1383 947 1366C1004 1349 1058 1326 1109 1295C1159 1264 1205 1227 1246 1184C1287 1141 1322 1093 1351 1040C1380 987 1403 931 1419 870C1435 809 1443 746 1443 680C1443 614 1435 551 1419 490C1403 429 1380 373 1351 320C1322 267 1287 220 1246 177C1205 134 1159 97 1109 67C1058 36 1004 13 947 -4C889 -21 829 -29 766 -29C703 -29 643 -21 585 -4C527 13 473 36 423 67C373 97 328 134 287 177C246 220 210 267 181 320C152 373 129 429 113 490C97 551 89 614 89 680ZM1011 387C980 360 942 339 899 324C856 308 807 300 753 300C714 300 675 308 635 325C594 341 558 365 525 397C492 429 466 469 445 516C424 563 413 618 413 680C413 741 422 795 439 842C456 889 478 928 507 960C535 991 568 1015 605 1031C642 1047 681 1055 722 1055C743 1055 762 1053 779 1048C796 1043 812 1038 825 1031C838 1024 850 1016 860 1007C870 998 878 990 884 982L884 1050L1018 1050L1018 781L892 781C883 817 866 846 842 868C817 889 787 900 750 900C727 900 705 896 684 889C663 882 644 870 628 853C612 836 599 813 590 785C580 757 575 722 575 680C575 639 581 604 594 575C606 546 622 522 641 503C660 484 682 471 705 463C728 454 750 450 772 450C801 450 830 455 860 466C890 476 919 492 947 515L1011 387ZM248 680C248 605 261 533 286 466C311 399 347 340 393 289C439 238 494 198 557 168C620 138 690 123 766 123C842 123 912 138 975 168C1038 198 1093 238 1139 289C1184 340 1220 399 1246 466C1271 533 1284 605 1284 680C1284 755 1271 827 1246 895C1220 962 1184 1022 1139 1073C1093 1124 1038 1164 975 1194C912 1224 842 1239 766 1239C690 1239 620 1224 557 1194C494 1164 439 1124 393 1073C347 1022 311 962 286 895C261 827 248 755 248 680Z"/>
<glyph unicode="&#xaa;" horiz-adv-x="769" d="M69 806L701 806L701 670L69 670L69 806ZM701 895L489 895L481 948C472 940 462 932 450 924C437 915 424 908 410 901C395 894 380 888 363 883C346 878 329 876 311 876C245 876 194 895 158 933C122 970 104 1026 104 1101C104 1138 111 1170 126 1195C140 1220 158 1241 180 1256C202 1271 226 1281 253 1288C280 1294 305 1297 329 1297L465 1297L465 1326C465 1347 462 1364 455 1377C448 1390 439 1401 427 1409C415 1417 401 1423 384 1426C367 1429 349 1430 329 1430C306 1430 281 1427 255 1422C228 1416 202 1406 177 1393L142 1517C178 1529 213 1538 247 1545C281 1552 311 1555 338 1555C375 1555 411 1551 446 1544C481 1537 512 1524 539 1505C566 1486 587 1460 603 1427C619 1394 627 1352 627 1301L627 1021L701 1021L701 895ZM342 1006C363 1006 385 1012 407 1023C429 1034 448 1047 465 1062L465 1176L379 1176C363 1176 348 1175 333 1172C318 1169 304 1165 293 1158C282 1151 273 1142 266 1130C259 1118 256 1103 256 1084C256 1059 264 1040 280 1027C296 1013 317 1006 342 1006Z"/>
<glyph unicode="&#xab;" horiz-adv-x="1482" d="M1487 290L1344 111L700 670L1344 1231L1487 1050L1052 670L1487 290ZM747 290L604 111L-40 670L604 1231L747 1050L312 670L747 290Z"/>
<glyph unicode="&#xac;" horiz-adv-x="1291" d="M1108 162L894 162L894 597L184 597L184 803L1108 803L1108 162Z"/>
<glyph unicode="&#xad;" horiz-adv-x="1177" d="M993 547L184 547L184 752L993 752L993 547Z"/>
<glyph unicode="&#xae;" horiz-adv-x="1532" d="M481 1062L719 1062C760 1062 800 1059 838 1052C876 1045 910 1033 939 1015C968 997 992 973 1010 942C1027 911 1036 871 1036 822C1036 791 1032 765 1024 743C1016 720 1006 701 995 685C983 669 970 656 956 646C942 636 929 628 917 622L998 452L1090 452L1090 317L884 317L768 585L703 585L703 317L481 317L481 452L547 452L547 926L481 926L481 1062ZM703 926L703 721L763 721C784 721 801 724 815 729C829 734 840 742 849 751C857 760 863 771 866 783C869 795 871 808 871 822C871 837 869 850 866 863C863 876 857 887 849 896C840 905 829 913 815 918C801 923 784 926 763 926L703 926ZM89 680C89 746 97 809 113 870C129 931 152 987 181 1040C210 1093 246 1141 287 1184C328 1227 373 1264 423 1295C473 1326 527 1349 585 1366C643 1383 703 1391 766 1391C829 1391 889 1383 947 1366C1004 1349 1058 1326 1109 1295C1159 1264 1205 1227 1246 1184C1287 1141 1322 1093 1351 1040C1380 987 1403 931 1419 870C1435 809 1443 746 1443 680C1443 614 1435 551 1419 490C1403 429 1380 373 1351 320C1322 267 1287 220 1246 177C1205 134 1159 97 1109 67C1058 36 1004 13 947 -4C889 -21 829 -29 766 -29C703 -29 643 -21 585 -4C527 13 473 36 423 67C373 97 328 134 287 177C246 220 210 267 181 320C152 373 129 429 113 490C97 551 89 614 89 680ZM248 680C248 605 261 533 286 466C311 399 347 340 393 289C439 238 494 198 557 168C620 138 690 123 766 123C842 123 912 138 975 168C1038 198 1093 238 1139 289C1184 340 1220 399 1246 466C1271 533 1284 605 1284 680C1284 755 1271 827 1246 895C1220 962 1184 1022 1139 1073C1093 1124 1038 1164 975 1194C912 1224 842 1239 766 1239C690 1239 620 1224 557 1194C494 1164 439 1124 393 1073C347 1022 311 962 286 895C261 827 248 755 248 680Z"/>
<glyph unicode="&#xaf;" horiz-adv-x="920" d="M120 1287L120 1493L800 1493L800 1287L120 1287Z"/>
<glyph unicode="&#xb0;" horiz-adv-x="1035" d="M115 968C115 1027 126 1082 147 1133C168 1184 196 1229 233 1268C269 1306 311 1336 360 1358C409 1380 461 1391 517 1391C573 1391 625 1380 674 1358C723 1336 765 1306 802 1268C839 1229 868 1184 889 1133C910 1082 920 1027 920 968C920 909 910 854 889 803C868 751 839 706 802 668C765 629 723 599 674 577C625 555 573 544 517 544C461 544 409 555 360 577C311 599 269 629 233 668C196 706 168 751 147 803C126 854 115 909 115 968ZM301 968C301 936 307 906 318 878C329 850 344 826 363 806C382 785 405 769 432 758C458 746 486 740 517 740C547 740 575 746 601 758C627 769 650 785 670 806C689 826 705 850 716 878C727 906 733 936 733 968C733 999 727 1029 716 1057C705 1084 689 1108 670 1129C650 1149 627 1165 601 1177C575 1189 547 1195 517 1195C486 1195 458 1189 432 1177C405 1165 382 1149 363 1129C344 1108 329 1084 318 1057C307 1029 301 999 301 968Z"/>
<glyph unicode="&#xb1;" horiz-adv-x="1090" d="M940 709L648 709L648 402L439 402L439 709L147 709L147 905L439 905L439 1212L648 1212L648 905L940 905L940 709ZM940 0L147 0L147 206L940 206L940 0Z"/>
<glyph unicode="&#xb2;" horiz-adv-x="655" d="M73 1147L73 1299C94 1315 117 1329 142 1341C163 1352 188 1362 215 1371C242 1380 272 1384 303 1384C334 1384 363 1379 390 1370C417 1361 440 1347 459 1330C478 1312 493 1290 504 1265C515 1240 520 1211 520 1180C520 1157 518 1136 514 1116C509 1095 502 1075 493 1056C484 1036 472 1016 457 997C442 978 423 957 402 936L248 784L446 784L446 876L565 876L565 653L69 653L69 789L292 1014C301 1023 310 1032 319 1043C328 1054 336 1065 344 1077C351 1089 358 1102 363 1117C368 1131 370 1147 370 1164C370 1187 363 1206 348 1223C333 1240 311 1248 283 1248C271 1248 260 1247 251 1245C242 1242 234 1240 227 1237C220 1234 213 1230 207 1226L207 1147L73 1147Z"/>
<glyph unicode="&#xb3;" horiz-adv-x="596" d="M136 825C146 817 157 810 170 803C181 798 194 793 209 788C224 783 240 781 259 781C274 781 288 782 301 785C314 787 326 791 337 797C348 803 356 811 363 822C369 833 372 847 372 864C372 879 369 892 363 903C357 914 349 922 338 929C327 936 315 941 302 944C288 947 274 948 259 948L220 948L220 1074L243 1074C281 1074 309 1080 327 1093C345 1105 354 1126 354 1156C354 1172 351 1185 345 1195C339 1205 331 1213 322 1219C313 1224 302 1228 290 1231C278 1233 266 1234 253 1234C236 1234 221 1232 208 1228C195 1224 183 1220 174 1215C163 1210 153 1204 144 1197L73 1314C93 1329 120 1343 153 1356C186 1369 224 1376 269 1376C306 1376 339 1371 368 1360C397 1349 421 1335 441 1317C460 1299 475 1278 486 1254C496 1230 501 1205 501 1178C501 1140 493 1107 478 1079C462 1050 436 1029 400 1016C484 992 526 936 526 847C526 810 519 778 504 752C489 725 469 704 445 687C421 670 394 658 365 651C336 643 307 639 278 639C237 639 198 644 162 655C125 665 94 681 69 702L136 825Z"/>
<glyph unicode="&#xb4;" horiz-adv-x="687" d="M314 1650L591 1650L285 1287L57 1287L314 1650Z"/>
<glyph unicode="&#xb5;" horiz-adv-x="1241" d="M175 856L50 856L50 1062L434 1062L434 435C434 407 435 379 437 352C438 324 444 299 454 277C463 255 478 237 498 224C517 210 545 203 581 203C606 203 629 207 650 214C671 221 691 229 709 239C726 248 742 259 757 270C771 281 784 290 795 298L795 856L671 856L671 1062L1054 1062L1054 206L1179 206L1179 0L837 0L816 116C798 94 778 74 755 57C732 39 707 24 682 11C657 -2 632 -12 607 -19C582 -26 558 -29 536 -29C515 -29 496 -28 480 -25C463 -22 448 -17 434 -12L434 -227L559 -227L559 -433L50 -433L50 -227L175 -227L175 856Z"/>
<glyph unicode="&#xb6;" horiz-adv-x="1415" d="M1347 1151L1220 1151L1220 -227L1347 -227L1347 -433L960 -433L960 1151L811 1151L811 -433L428 -433L428 -227L552 -227L552 564C459 564 381 575 318 597C255 618 205 647 167 684C128 721 101 763 85 811C68 858 60 908 60 960C60 1011 68 1061 85 1109C101 1157 128 1200 167 1237C205 1274 255 1303 318 1326C381 1348 459 1359 552 1359L1347 1359L1347 1151ZM313 960C313 936 317 913 324 890C331 867 344 846 363 829C381 811 405 797 436 786C467 775 505 769 552 769L552 1151C501 1151 461 1146 430 1135C399 1124 374 1109 357 1091C340 1073 328 1053 322 1030C316 1007 313 984 313 960Z"/>
<glyph unicode="&#xb7;" horiz-adv-x="635" d="M450 561L184 561L184 844L450 844L450 561Z"/>
<glyph unicode="&#xb8;" horiz-adv-x="596" d="M374 0L340 -114C353 -115 371 -117 392 -121C413 -124 433 -132 453 -145C473 -157 490 -175 505 -199C519 -222 526 -254 526 -295C526 -318 522 -342 515 -368C507 -393 494 -417 476 -439C457 -461 432 -479 401 -494C370 -508 330 -515 283 -515C253 -515 225 -511 200 -504C174 -497 151 -488 132 -479C109 -468 88 -456 69 -443L131 -331C142 -339 154 -346 167 -352C178 -357 192 -362 207 -367C222 -371 239 -373 257 -373C286 -373 309 -367 326 -356C343 -345 351 -327 351 -302C351 -286 348 -273 341 -264C334 -254 326 -246 315 -241C304 -236 293 -232 280 -230C267 -228 254 -227 241 -227L156 -227L232 0L374 0Z"/>
<glyph unicode="&#xb9;" horiz-adv-x="638" d="M92 781L248 781L248 1195L99 1161L69 1287L338 1359L409 1359L409 781L570 781L570 653L92 653L92 781Z"/>
<glyph unicode="&#xba;" horiz-adv-x="756" d="M69 806L687 806L687 670L69 670L69 806ZM379 1425C361 1425 344 1421 329 1414C313 1406 299 1394 287 1377C275 1360 266 1339 259 1313C252 1286 248 1254 248 1217C248 1179 252 1147 259 1120C266 1093 275 1072 287 1056C299 1039 313 1027 329 1020C344 1013 361 1009 379 1009C398 1009 415 1013 431 1020C447 1027 461 1039 473 1056C485 1072 495 1093 502 1120C509 1147 512 1179 512 1217C512 1254 508 1286 501 1313C494 1339 484 1360 472 1377C460 1394 446 1406 430 1414C414 1421 397 1425 379 1425ZM379 1555C422 1555 461 1547 496 1531C531 1514 562 1491 588 1462C613 1433 633 1397 648 1356C662 1314 669 1268 669 1217C669 1166 662 1119 648 1077C633 1035 613 999 588 970C562 941 531 918 496 902C461 886 422 878 379 878C336 878 297 886 262 902C227 918 196 941 171 970C145 999 125 1035 111 1077C96 1119 89 1166 89 1217C89 1268 96 1314 111 1356C125 1397 145 1433 171 1462C196 1491 227 1514 262 1531C297 1547 336 1555 379 1555Z"/>
<glyph unicode="&#xbb;" horiz-adv-x="1482" d="M430 670L-5 1050L138 1231L782 670L138 111L-5 290L430 670ZM1170 670L735 1050L878 1231L1522 670L878 111L735 290L1170 670Z"/>
<glyph unicode="&#xbc;" horiz-adv-x="1420" d="M92 781L248 781L248 1195L99 1161L69 1287L338 1359L409 1359L409 781L570 781L570 653L92 653L92 781ZM1114 324L1114 537L981 324L1114 324ZM1114 208L832 208L832 329L1108 728L1248 728L1248 324L1351 324L1351 208L1248 208L1248 114L1351 114L1351 0L986 0L986 114L1114 114L1114 208ZM1092 1359L1266 1359L468 0L296 0L1092 1359Z"/>
<glyph unicode="&#xbd;" horiz-adv-x="1545" d="M92 781L248 781L248 1195L99 1161L69 1287L338 1359L409 1359L409 781L570 781L570 653L92 653L92 781ZM1092 1359L1266 1359L468 0L296 0L1092 1359ZM965 493L965 646C986 662 1008 676 1033 688C1054 699 1079 709 1107 718C1134 727 1164 731 1195 731C1226 731 1255 726 1282 717C1309 708 1332 694 1351 677C1370 659 1384 637 1395 612C1406 587 1411 558 1411 527C1411 504 1409 482 1405 462C1400 442 1393 422 1384 403C1375 383 1363 363 1348 344C1333 325 1315 304 1294 283L1140 131L1338 131L1338 223L1457 223L1457 0L960 0L960 135L1184 360C1193 369 1202 379 1211 390C1220 400 1228 411 1236 424C1243 436 1250 449 1255 464C1260 478 1262 493 1262 510C1262 535 1254 555 1239 571C1224 587 1202 595 1174 595C1162 595 1151 594 1142 592C1133 589 1125 587 1118 584C1111 581 1104 577 1098 573L1098 493L965 493Z"/>
<glyph unicode="&#xbe;" horiz-adv-x="1342" d="M1011 1359L1188 1359L390 0L216 0L1011 1359ZM1035 324L1035 537L901 324L1035 324ZM1035 208L751 208L751 329L1030 728L1169 728L1169 324L1273 324L1273 208L1169 208L1169 114L1273 114L1273 0L905 0L905 114L1035 114L1035 208ZM136 825C146 817 157 810 170 803C181 798 194 793 209 788C224 783 240 781 259 781C274 781 288 782 301 785C314 787 326 791 337 797C348 803 356 811 363 822C369 833 372 847 372 864C372 879 369 892 363 903C357 914 349 922 338 929C327 936 315 941 302 944C288 947 274 948 259 948L220 948L220 1074L243 1074C281 1074 309 1080 327 1093C345 1105 354 1126 354 1156C354 1172 351 1185 345 1195C339 1205 331 1213 322 1219C313 1224 302 1228 290 1231C278 1233 266 1234 253 1234C236 1234 221 1232 208 1228C195 1224 183 1220 174 1215C163 1210 153 1204 144 1197L73 1314C93 1329 120 1343 153 1356C186 1369 224 1376 269 1376C306 1376 339 1371 368 1360C397 1349 421 1335 441 1317C460 1299 475 1278 486 1254C496 1230 501 1205 501 1178C501 1140 493 1107 478 1079C462 1050 436 1029 400 1016C484 992 526 936 526 847C526 810 519 778 504 752C489 725 469 704 445 687C421 670 394 658 365 651C336 643 307 639 278 639C237 639 198 644 162 655C125 665 94 681 69 702L136 825Z"/>
<glyph unicode="&#xbf;" horiz-adv-x="1119" d="M1002 392L1002 68C977 55 946 42 911 31C875 19 838 9 799 -1C760 -10 722 -17 683 -22C644 -27 610 -29 579 -29C524 -29 470 -22 417 -7C364 8 318 30 277 60C236 90 203 128 178 175C153 222 140 277 140 341C140 394 149 439 166 476C183 512 204 543 229 569C254 594 282 617 312 636C328 647 344 658 359 669C371 678 383 687 395 696C420 717 442 740 459 765C476 790 484 822 484 859L484 907L742 907L742 859C742 800 734 751 718 713C702 675 682 643 658 618C633 593 607 571 579 553C564 544 550 535 537 526C524 517 512 508 500 499C476 480 456 459 440 435C424 411 416 380 416 341C416 323 419 306 425 289C431 272 442 258 457 245C472 232 491 222 516 215C541 207 572 203 609 203C631 203 656 206 684 213C712 219 738 229 763 242L763 392L1002 392ZM471 1362L756 1362L756 1057L471 1057L471 1362Z"/>
<glyph unicode="&#xc0;" horiz-adv-x="1310" d="M331 1359L786 1359L1186 215L1285 215L1285 0L820 0L820 215L945 215L871 428L455 428L381 215L506 215L506 0L41 0L41 215L140 215L485 1144L331 1144L331 1359ZM524 617L802 617L664 1026L524 617ZM778 1519L551 1519L247 1882L519 1882L778 1519Z"/>
<glyph unicode="&#xc1;" horiz-adv-x="1310" d="M331 1359L786 1359L1186 215L1285 215L1285 0L820 0L820 215L945 215L871 428L455 428L381 215L506 215L506 0L41 0L41 215L140 215L485 1144L331 1144L331 1359ZM524 617L802 617L664 1026L524 617ZM818 1882L1092 1882L786 1519L558 1519L818 1882Z"/>
<glyph unicode="&#xc2;" horiz-adv-x="1310" d="M331 1359L786 1359L1186 215L1285 215L1285 0L820 0L820 215L945 215L871 428L455 428L381 215L506 215L506 0L41 0L41 215L140 215L485 1144L331 1144L331 1359ZM524 617L802 617L664 1026L524 617ZM529 1882L802 1882L1059 1519L832 1519L664 1754L498 1519L271 1519L529 1882Z"/>
<glyph unicode="&#xc3;" horiz-adv-x="1310" d="M331 1359L786 1359L1186 215L1285 215L1285 0L820 0L820 215L945 215L871 428L455 428L381 215L506 215L506 0L41 0L41 215L140 215L485 1144L331 1144L331 1359ZM524 617L802 617L664 1026L524 617ZM246 1519C246 1528 247 1543 249 1562C250 1581 254 1603 260 1626C265 1649 273 1674 284 1699C295 1724 309 1746 328 1767C347 1787 370 1804 397 1817C424 1830 457 1836 496 1836C528 1836 557 1830 583 1817C609 1804 634 1791 657 1776C680 1761 701 1747 722 1734C743 1721 763 1715 783 1715C804 1715 821 1720 833 1729C844 1738 853 1748 859 1761C864 1774 868 1787 869 1801C870 1814 871 1826 871 1836L1054 1836C1054 1835 1054 1826 1053 1810C1052 1794 1050 1774 1045 1751C1040 1727 1033 1702 1023 1675C1013 1648 999 1623 980 1600C961 1577 938 1557 909 1542C880 1527 845 1519 804 1519C769 1519 739 1526 712 1539C685 1552 661 1567 638 1583C615 1599 594 1614 575 1627C556 1640 536 1647 516 1647C496 1647 480 1642 469 1633C458 1624 449 1613 444 1600C439 1587 435 1573 434 1558C433 1543 432 1530 432 1519L246 1519Z"/>
<glyph unicode="&#xc4;" horiz-adv-x="1310" d="M331 1359L786 1359L1186 215L1285 215L1285 0L820 0L820 215L945 215L871 428L455 428L381 215L506 215L506 0L41 0L41 215L140 215L485 1144L331 1144L331 1359ZM524 617L802 617L664 1026L524 617ZM560 1519L294 1519L294 1790L560 1790L560 1519ZM1034 1519L767 1519L767 1790L1034 1790L1034 1519Z"/>
<glyph unicode="&#xc5;" horiz-adv-x="1310" d="M331 1359L786 1359L1186 215L1285 215L1285 0L820 0L820 215L945 215L871 428L455 428L381 215L506 215L506 0L41 0L41 215L140 215L485 1144L331 1144L331 1359ZM524 617L802 617L664 1026L524 617ZM420 1749C420 1784 426 1817 439 1848C451 1879 468 1906 489 1929C510 1952 536 1971 566 1985C595 1998 627 2005 661 2005C694 2005 725 1998 754 1985C783 1971 809 1952 832 1929C854 1906 872 1879 885 1848C898 1817 904 1784 904 1749C904 1713 898 1680 885 1649C872 1618 854 1591 832 1568C809 1545 783 1528 754 1515C725 1502 694 1495 661 1495C627 1495 595 1502 566 1515C536 1528 510 1545 489 1568C468 1591 451 1618 439 1649C426 1680 420 1713 420 1749ZM564 1749C564 1735 567 1722 572 1710C577 1697 584 1686 593 1677C602 1668 612 1660 624 1655C635 1650 648 1647 661 1647C675 1647 688 1650 700 1655C712 1660 723 1668 732 1677C741 1686 748 1697 753 1710C758 1722 760 1735 760 1749C760 1778 751 1803 732 1823C713 1843 689 1853 661 1853C648 1853 635 1850 624 1845C612 1840 602 1832 593 1823C584 1814 577 1803 572 1790C567 1777 564 1764 564 1749Z"/>
<glyph unicode="&#xc6;" horiz-adv-x="1751" d="M682 0L682 215L797 215L797 406L478 406L384 215L494 215L494 0L27 0L27 215L121 215L602 1144L390 1144L390 1359L1670 1359L1670 953L1433 953L1433 1144L1061 1144L1061 806L1316 806L1316 585L1061 585L1061 215L1433 215L1433 433L1670 433L1670 0L682 0ZM547 573L797 573L797 1064L547 573Z"/>
<glyph unicode="&#xc7;" horiz-adv-x="1134" d="M1060 162C1037 131 1008 102 973 76C958 65 942 54 923 43C904 32 884 21 861 12C838 3 813 -6 786 -13C759 -20 730 -24 699 -27L675 -114C684 -115 694 -116 707 -117C720 -118 733 -121 747 -126C760 -130 774 -136 788 -145C801 -153 814 -164 825 -177C836 -190 844 -206 851 -226C858 -245 861 -268 861 -295C861 -318 857 -342 850 -368C842 -393 829 -417 810 -439C791 -461 766 -479 735 -494C704 -508 664 -515 617 -515C587 -515 559 -511 534 -504C508 -497 485 -488 466 -479C443 -468 422 -456 403 -443L466 -331C477 -339 489 -346 502 -352C513 -357 527 -362 542 -367C557 -371 574 -373 592 -373C621 -373 644 -367 661 -356C678 -345 686 -327 686 -302C686 -286 683 -273 676 -264C669 -254 661 -246 650 -241C639 -236 628 -232 615 -230C602 -228 589 -227 576 -227L490 -227L560 -22C485 -11 417 13 357 51C297 89 246 138 205 199C164 259 132 329 110 410C88 491 77 579 77 675C77 780 90 877 116 965C142 1052 179 1128 226 1191C273 1254 329 1304 394 1339C459 1374 531 1391 610 1391C644 1391 675 1387 703 1378C731 1369 756 1359 778 1346C799 1333 818 1320 833 1306C848 1291 860 1279 869 1268L890 1359L1063 1359L1063 934L858 934C848 1005 825 1061 790 1100C755 1139 704 1159 639 1159C586 1159 541 1146 506 1120C470 1093 441 1058 420 1013C398 968 382 916 373 857C364 798 359 735 359 668C359 589 367 520 382 462C397 403 419 355 446 317C473 278 506 250 543 231C580 212 621 203 665 203C703 203 737 210 766 223C795 236 819 251 838 268C861 287 880 309 897 334L1060 162Z"/>
<glyph unicode="&#xc8;" horiz-adv-x="1177" d="M97 0L97 215L220 215L220 1144L97 1144L97 1359L1096 1359L1096 958L857 958L857 1144L485 1144L485 806L740 806L740 588L485 588L485 215L857 215L857 423L1096 423L1096 0L97 0ZM779 1519L552 1519L248 1882L520 1882L779 1519Z"/>
<glyph unicode="&#xc9;" horiz-adv-x="1177" d="M97 0L97 215L220 215L220 1144L97 1144L97 1359L1096 1359L1096 958L857 958L857 1144L485 1144L485 806L740 806L740 588L485 588L485 215L857 215L857 423L1096 423L1096 0L97 0ZM657 1882L931 1882L625 1519L397 1519L657 1882Z"/>
<glyph unicode="&#xca;" horiz-adv-x="1177" d="M97 0L97 215L220 215L220 1144L97 1144L97 1359L1096 1359L1096 958L857 958L857 1144L485 1144L485 806L740 806L740 588L485 588L485 215L857 215L857 423L1096 423L1096 0L97 0ZM488 1882L761 1882L1018 1519L791 1519L623 1754L457 1519L230 1519L488 1882Z"/>
<glyph unicode="&#xcb;" horiz-adv-x="1177" d="M97 0L97 215L220 215L220 1144L97 1144L97 1359L1096 1359L1096 958L857 958L857 1144L485 1144L485 806L740 806L740 588L485 588L485 215L857 215L857 423L1096 423L1096 0L97 0ZM503 1519L237 1519L237 1790L503 1790L503 1519ZM977 1519L710 1519L710 1790L977 1790L977 1519Z"/>
<glyph unicode="&#xcc;" horiz-adv-x="764" d="M495 1519L267 1519L107 1882L382 1882L495 1519ZM79 215L249 215L249 1144L79 1144L79 1359L685 1359L685 1144L515 1144L515 215L685 215L685 0L79 0L79 215Z"/>
<glyph unicode="&#xcd;" horiz-adv-x="764" d="M410 1882L685 1882L499 1519L272 1519L410 1882ZM79 215L249 215L249 1144L79 1144L79 1359L685 1359L685 1144L515 1144L515 215L685 215L685 0L79 0L79 215Z"/>
<glyph unicode="&#xce;" horiz-adv-x="764" d="M79 215L249 215L249 1144L79 1144L79 1359L685 1359L685 1144L515 1144L515 215L685 215L685 0L79 0L79 215ZM250 1882L523 1882L780 1519L553 1519L385 1754L219 1519L-8 1519L250 1882Z"/>
<glyph unicode="&#xcf;" horiz-adv-x="764" d="M79 215L249 215L249 1144L79 1144L79 1359L685 1359L685 1144L515 1144L515 215L685 215L685 0L79 0L79 215ZM278 1519L12 1519L12 1790L278 1790L278 1519ZM752 1519L485 1519L485 1790L752 1790L752 1519Z"/>
<glyph unicode="&#xd0;" horiz-adv-x="1281" d="M98 1359L610 1359C675 1359 735 1351 790 1334C845 1317 894 1294 938 1264C982 1234 1021 1198 1054 1157C1087 1115 1115 1069 1138 1020C1161 970 1178 917 1189 861C1200 804 1206 746 1206 687C1206 597 1193 511 1168 428C1142 345 1104 272 1054 209C1004 145 942 94 868 57C793 19 707 0 610 0L98 0L98 215L221 215L221 585L98 585L98 801L221 801L221 1144L98 1144L98 1359ZM486 1144L486 801L612 801L612 585L486 585L486 215L599 215C624 215 649 217 674 222C699 227 724 235 748 248C771 261 793 278 814 301C835 323 853 351 868 386C883 421 896 463 905 513C914 562 918 620 918 687C918 775 908 848 889 907C870 966 845 1013 815 1048C784 1083 750 1107 712 1122C674 1137 636 1144 599 1144L486 1144Z"/>
<glyph unicode="&#xd1;" horiz-adv-x="1474" d="M1399 1144L1276 1144L1276 0L903 0L462 1096L462 215L565 215L565 0L97 0L97 215L220 215L220 1144L97 1144L97 1359L604 1359L1032 264L1032 1144L928 1144L928 1359L1399 1359L1399 1144ZM371 1519C371 1528 372 1543 374 1562C375 1581 379 1603 385 1626C390 1649 398 1674 409 1699C420 1724 434 1746 453 1767C472 1787 495 1804 522 1817C549 1830 582 1836 621 1836C653 1836 682 1830 708 1817C734 1804 759 1791 782 1776C805 1761 826 1747 847 1734C868 1721 888 1715 908 1715C929 1715 946 1720 958 1729C969 1738 978 1748 984 1761C989 1774 993 1787 994 1801C995 1814 996 1826 996 1836L1179 1836C1179 1835 1179 1826 1178 1810C1177 1794 1175 1774 1170 1751C1165 1727 1158 1702 1148 1675C1138 1648 1124 1623 1105 1600C1086 1577 1063 1557 1034 1542C1005 1527 970 1519 929 1519C894 1519 864 1526 837 1539C810 1552 786 1567 763 1583C740 1599 719 1614 700 1627C681 1640 661 1647 641 1647C621 1647 605 1642 594 1633C583 1624 574 1613 569 1600C564 1587 560 1573 559 1558C558 1543 557 1530 557 1519L371 1519Z"/>
<glyph unicode="&#xd2;" horiz-adv-x="1310" d="M366 687C366 620 371 558 382 499C393 440 410 389 433 345C456 301 485 266 522 241C559 216 603 203 655 203C708 203 753 216 790 241C827 266 857 301 880 345C903 389 920 440 931 499C942 558 947 620 947 687C947 754 942 816 931 873C920 930 903 980 880 1023C857 1065 827 1098 790 1123C753 1147 708 1159 655 1159C603 1159 559 1147 522 1123C485 1098 456 1065 433 1023C410 980 393 930 382 873C371 816 366 754 366 687ZM76 687C76 747 81 806 92 864C102 922 117 977 138 1030C159 1082 185 1130 217 1174C248 1218 285 1256 328 1289C371 1321 419 1346 474 1364C529 1382 589 1391 655 1391C721 1391 781 1382 836 1364C891 1346 939 1321 982 1289C1025 1256 1062 1218 1094 1174C1125 1130 1152 1082 1173 1030C1194 977 1209 922 1219 864C1229 806 1234 747 1234 687C1234 626 1229 567 1219 508C1209 449 1194 393 1173 340C1152 287 1125 238 1094 193C1062 148 1025 109 982 76C939 43 891 18 836 -1C781 -20 721 -29 655 -29C588 -29 528 -20 474 -1C419 18 371 43 328 76C285 109 248 148 217 193C185 238 159 287 138 340C117 393 101 449 91 508C81 567 76 626 76 687ZM852 1519L625 1519L321 1882L593 1882L852 1519Z"/>
<glyph unicode="&#xd3;" horiz-adv-x="1310" d="M366 687C366 620 371 558 382 499C393 440 410 389 433 345C456 301 485 266 522 241C559 216 603 203 655 203C708 203 753 216 790 241C827 266 857 301 880 345C903 389 920 440 931 499C942 558 947 620 947 687C947 754 942 816 931 873C920 930 903 980 880 1023C857 1065 827 1098 790 1123C753 1147 708 1159 655 1159C603 1159 559 1147 522 1123C485 1098 456 1065 433 1023C410 980 393 930 382 873C371 816 366 754 366 687ZM76 687C76 747 81 806 92 864C102 922 117 977 138 1030C159 1082 185 1130 217 1174C248 1218 285 1256 328 1289C371 1321 419 1346 474 1364C529 1382 589 1391 655 1391C721 1391 781 1382 836 1364C891 1346 939 1321 982 1289C1025 1256 1062 1218 1094 1174C1125 1130 1152 1082 1173 1030C1194 977 1209 922 1219 864C1229 806 1234 747 1234 687C1234 626 1229 567 1219 508C1209 449 1194 393 1173 340C1152 287 1125 238 1094 193C1062 148 1025 109 982 76C939 43 891 18 836 -1C781 -20 721 -29 655 -29C588 -29 528 -20 474 -1C419 18 371 43 328 76C285 109 248 148 217 193C185 238 159 287 138 340C117 393 101 449 91 508C81 567 76 626 76 687ZM728 1882L1002 1882L696 1519L468 1519L728 1882Z"/>
<glyph unicode="&#xd4;" horiz-adv-x="1310" d="M366 687C366 620 371 558 382 499C393 440 410 389 433 345C456 301 485 266 522 241C559 216 603 203 655 203C708 203 753 216 790 241C827 266 857 301 880 345C903 389 920 440 931 499C942 558 947 620 947 687C947 754 942 816 931 873C920 930 903 980 880 1023C857 1065 827 1098 790 1123C753 1147 708 1159 655 1159C603 1159 559 1147 522 1123C485 1098 456 1065 433 1023C410 980 393 930 382 873C371 816 366 754 366 687ZM76 687C76 747 81 806 92 864C102 922 117 977 138 1030C159 1082 185 1130 217 1174C248 1218 285 1256 328 1289C371 1321 419 1346 474 1364C529 1382 589 1391 655 1391C721 1391 781 1382 836 1364C891 1346 939 1321 982 1289C1025 1256 1062 1218 1094 1174C1125 1130 1152 1082 1173 1030C1194 977 1209 922 1219 864C1229 806 1234 747 1234 687C1234 626 1229 567 1219 508C1209 449 1194 393 1173 340C1152 287 1125 238 1094 193C1062 148 1025 109 982 76C939 43 891 18 836 -1C781 -20 721 -29 655 -29C588 -29 528 -20 474 -1C419 18 371 43 328 76C285 109 248 148 217 193C185 238 159 287 138 340C117 393 101 449 91 508C81 567 76 626 76 687ZM520 1882L793 1882L1050 1519L823 1519L655 1754L489 1519L262 1519L520 1882Z"/>
<glyph unicode="&#xd5;" horiz-adv-x="1310" d="M366 687C366 620 371 558 382 499C393 440 410 389 433 345C456 301 485 266 522 241C559 216 603 203 655 203C708 203 753 216 790 241C827 266 857 301 880 345C903 389 920 440 931 499C942 558 947 620 947 687C947 754 942 816 931 873C920 930 903 980 880 1023C857 1065 827 1098 790 1123C753 1147 708 1159 655 1159C603 1159 559 1147 522 1123C485 1098 456 1065 433 1023C410 980 393 930 382 873C371 816 366 754 366 687ZM76 687C76 747 81 806 92 864C102 922 117 977 138 1030C159 1082 185 1130 217 1174C248 1218 285 1256 328 1289C371 1321 419 1346 474 1364C529 1382 589 1391 655 1391C721 1391 781 1382 836 1364C891 1346 939 1321 982 1289C1025 1256 1062 1218 1094 1174C1125 1130 1152 1082 1173 1030C1194 977 1209 922 1219 864C1229 806 1234 747 1234 687C1234 626 1229 567 1219 508C1209 449 1194 393 1173 340C1152 287 1125 238 1094 193C1062 148 1025 109 982 76C939 43 891 18 836 -1C781 -20 721 -29 655 -29C588 -29 528 -20 474 -1C419 18 371 43 328 76C285 109 248 148 217 193C185 238 159 287 138 340C117 393 101 449 91 508C81 567 76 626 76 687ZM245 1519C245 1528 246 1543 248 1562C249 1581 253 1603 259 1626C264 1649 272 1674 283 1699C294 1724 308 1746 327 1767C346 1787 369 1804 396 1817C423 1830 456 1836 495 1836C527 1836 556 1830 582 1817C608 1804 633 1791 656 1776C679 1761 700 1747 721 1734C742 1721 762 1715 782 1715C803 1715 820 1720 832 1729C843 1738 852 1748 858 1761C863 1774 867 1787 868 1801C869 1814 870 1826 870 1836L1053 1836C1053 1835 1053 1826 1052 1810C1051 1794 1049 1774 1044 1751C1039 1727 1032 1702 1022 1675C1012 1648 998 1623 979 1600C960 1577 937 1557 908 1542C879 1527 844 1519 803 1519C768 1519 738 1526 711 1539C684 1552 660 1567 637 1583C614 1599 593 1614 574 1627C555 1640 535 1647 515 1647C495 1647 479 1642 468 1633C457 1624 448 1613 443 1600C438 1587 434 1573 433 1558C432 1543 431 1530 431 1519L245 1519Z"/>
<glyph unicode="&#xd6;" horiz-adv-x="1310" d="M366 687C366 620 371 558 382 499C393 440 410 389 433 345C456 301 485 266 522 241C559 216 603 203 655 203C708 203 753 216 790 241C827 266 857 301 880 345C903 389 920 440 931 499C942 558 947 620 947 687C947 754 942 816 931 873C920 930 903 980 880 1023C857 1065 827 1098 790 1123C753 1147 708 1159 655 1159C603 1159 559 1147 522 1123C485 1098 456 1065 433 1023C410 980 393 930 382 873C371 816 366 754 366 687ZM76 687C76 747 81 806 92 864C102 922 117 977 138 1030C159 1082 185 1130 217 1174C248 1218 285 1256 328 1289C371 1321 419 1346 474 1364C529 1382 589 1391 655 1391C721 1391 781 1382 836 1364C891 1346 939 1321 982 1289C1025 1256 1062 1218 1094 1174C1125 1130 1152 1082 1173 1030C1194 977 1209 922 1219 864C1229 806 1234 747 1234 687C1234 626 1229 567 1219 508C1209 449 1194 393 1173 340C1152 287 1125 238 1094 193C1062 148 1025 109 982 76C939 43 891 18 836 -1C781 -20 721 -29 655 -29C588 -29 528 -20 474 -1C419 18 371 43 328 76C285 109 248 148 217 193C185 238 159 287 138 340C117 393 101 449 91 508C81 567 76 626 76 687ZM558 1519L292 1519L292 1790L558 1790L558 1519ZM1032 1519L765 1519L765 1790L1032 1790L1032 1519Z"/>
<glyph unicode="&#xd7;" horiz-adv-x="1062" d="M956 987L674 687L960 385L811 227L526 530L239 230L105 368L393 670L104 977L253 1132L542 827L825 1125L956 987Z"/>
<glyph unicode="&#xd8;" horiz-adv-x="1310" d="M346 63C299 94 259 133 225 180C191 227 163 278 141 333C119 388 103 445 92 506C81 567 76 627 76 687C76 747 81 806 92 864C102 922 117 977 138 1030C159 1082 185 1130 217 1174C248 1218 285 1256 328 1289C371 1321 419 1346 474 1364C529 1382 589 1391 655 1391C684 1391 711 1389 734 1386C757 1383 780 1378 805 1372L868 1560L1082 1560L987 1284C1029 1253 1065 1215 1096 1172C1127 1128 1152 1080 1173 1029C1194 978 1209 923 1219 865C1229 807 1234 748 1234 687C1234 626 1229 567 1219 508C1209 449 1194 393 1173 340C1152 287 1125 238 1094 193C1062 148 1025 109 982 76C939 43 891 18 836 -1C781 -20 721 -29 655 -29C634 -29 614 -28 593 -27C572 -26 552 -22 533 -17L465 -210L251 -210L346 63ZM366 687C366 618 371 552 382 490C393 428 412 375 440 331L725 1150C714 1153 703 1156 692 1157C681 1158 668 1159 655 1159C603 1159 559 1147 522 1123C485 1098 456 1065 433 1023C410 980 393 930 382 873C371 816 366 754 366 687ZM947 687C947 717 946 747 944 776C942 805 939 834 934 861C929 888 923 914 916 939C909 964 900 986 889 1006L610 207C617 206 625 205 634 204C643 203 650 203 655 203C708 203 753 216 790 241C827 266 857 301 880 345C903 389 920 440 931 499C942 558 947 620 947 687Z"/>
<glyph unicode="&#xd9;" horiz-adv-x="1347" d="M770 1359L1282 1359L1282 1144L1159 1144L1159 464C1159 394 1150 329 1132 269C1113 209 1084 157 1045 113C1006 68 955 34 894 9C832 -17 758 -29 671 -29C584 -29 511 -17 450 9C389 34 339 68 300 113C261 157 233 209 216 269C198 329 189 394 189 464L189 1144L64 1144L64 1359L577 1359L577 1144L453 1144L453 464C453 410 459 366 472 332C485 298 501 272 522 253C542 234 565 221 591 214C617 207 644 203 671 203C698 203 724 207 751 214C778 221 802 234 823 253C844 272 862 298 875 332C888 366 894 410 894 464L894 1144L770 1144L770 1359ZM882 1519L655 1519L351 1882L623 1882L882 1519Z"/>
<glyph unicode="&#xda;" horiz-adv-x="1347" d="M770 1359L1282 1359L1282 1144L1159 1144L1159 464C1159 394 1150 329 1132 269C1113 209 1084 157 1045 113C1006 68 955 34 894 9C832 -17 758 -29 671 -29C584 -29 511 -17 450 9C389 34 339 68 300 113C261 157 233 209 216 269C198 329 189 394 189 464L189 1144L64 1144L64 1359L577 1359L577 1144L453 1144L453 464C453 410 459 366 472 332C485 298 501 272 522 253C542 234 565 221 591 214C617 207 644 203 671 203C698 203 724 207 751 214C778 221 802 234 823 253C844 272 862 298 875 332C888 366 894 410 894 464L894 1144L770 1144L770 1359ZM710 1882L984 1882L678 1519L450 1519L710 1882Z"/>
<glyph unicode="&#xdb;" horiz-adv-x="1347" d="M770 1359L1282 1359L1282 1144L1159 1144L1159 464C1159 394 1150 329 1132 269C1113 209 1084 157 1045 113C1006 68 955 34 894 9C832 -17 758 -29 671 -29C584 -29 511 -17 450 9C389 34 339 68 300 113C261 157 233 209 216 269C198 329 189 394 189 464L189 1144L64 1144L64 1359L577 1359L577 1144L453 1144L453 464C453 410 459 366 472 332C485 298 501 272 522 253C542 234 565 221 591 214C617 207 644 203 671 203C698 203 724 207 751 214C778 221 802 234 823 253C844 272 862 298 875 332C888 366 894 410 894 464L894 1144L770 1144L770 1359ZM537 1882L810 1882L1067 1519L840 1519L672 1754L506 1519L279 1519L537 1882Z"/>
<glyph unicode="&#xdc;" horiz-adv-x="1347" d="M770 1359L1282 1359L1282 1144L1159 1144L1159 464C1159 394 1150 329 1132 269C1113 209 1084 157 1045 113C1006 68 955 34 894 9C832 -17 758 -29 671 -29C584 -29 511 -17 450 9C389 34 339 68 300 113C261 157 233 209 216 269C198 329 189 394 189 464L189 1144L64 1144L64 1359L577 1359L577 1144L453 1144L453 464C453 410 459 366 472 332C485 298 501 272 522 253C542 234 565 221 591 214C617 207 644 203 671 203C698 203 724 207 751 214C778 221 802 234 823 253C844 272 862 298 875 332C888 366 894 410 894 464L894 1144L770 1144L770 1359ZM569 1519L303 1519L303 1790L569 1790L569 1519ZM1043 1519L776 1519L776 1790L1043 1790L1043 1519Z"/>
<glyph unicode="&#xdd;" horiz-adv-x="1248" d="M747 1359L1208 1359L1208 1144L1110 1144L758 493L758 215L940 215L940 0L310 0L310 215L491 215L491 491L140 1144L39 1144L39 1359L514 1359L514 1144L423 1144L625 731L839 1144L747 1144L747 1359ZM638 1882L912 1882L606 1519L378 1519L638 1882Z"/>
<glyph unicode="&#xde;" horiz-adv-x="1188" d="M1143 801C1143 740 1136 688 1121 643C1106 598 1086 560 1061 529C1036 497 1006 471 973 451C939 431 903 415 866 404C829 392 790 384 751 380C711 375 673 373 636 373L484 373L484 215L608 215L608 0L95 0L95 215L220 215L220 1144L95 1144L95 1359L484 1359L484 1222L636 1222C675 1222 714 1220 754 1216C794 1212 833 1204 870 1193C907 1182 943 1166 976 1147C1009 1127 1038 1101 1063 1070C1088 1039 1107 1001 1122 957C1136 913 1143 861 1143 801ZM484 1004L484 590L636 590C685 590 725 596 756 609C787 621 811 637 828 657C845 677 857 700 863 725C869 750 872 776 872 801C872 826 869 851 863 876C857 900 845 922 828 941C811 960 787 975 756 987C725 998 685 1004 636 1004L484 1004Z"/>
<glyph unicode="&#xdf;" horiz-adv-x="1253" d="M64 206L190 206L190 1006C190 1042 192 1080 196 1119C199 1158 207 1197 219 1235C230 1273 247 1309 268 1344C289 1378 318 1408 353 1434C388 1460 431 1481 482 1496C533 1511 593 1519 664 1519C734 1519 797 1510 853 1492C908 1474 956 1448 995 1413C1034 1378 1064 1336 1085 1285C1106 1234 1116 1175 1116 1108C1116 1071 1113 1038 1106 1009C1099 980 1089 955 1078 934C1066 912 1053 893 1038 878C1023 863 1008 850 993 839C956 814 915 798 870 791C889 786 911 780 934 773C957 765 980 755 1004 743C1027 731 1050 716 1072 699C1094 681 1114 660 1131 635C1148 610 1162 581 1173 548C1183 515 1188 476 1188 433C1188 372 1181 320 1166 275C1151 230 1132 191 1107 159C1082 126 1054 100 1021 80C988 59 954 43 918 31C881 19 844 11 807 7C769 2 733 0 698 0L561 0L561 206L671 206C708 206 743 210 774 219C805 228 831 241 854 260C876 278 893 301 906 330C918 359 924 393 924 433C924 485 914 527 894 559C874 590 849 615 819 632C789 649 757 661 722 667C687 672 656 675 627 675L627 878C636 878 649 879 664 880C679 881 694 885 711 890C728 895 745 903 762 913C779 923 794 937 808 954C821 971 832 992 841 1017C850 1042 854 1073 854 1108C854 1134 851 1159 844 1184C837 1209 827 1231 812 1250C797 1269 777 1285 753 1297C728 1308 699 1314 664 1314C628 1314 597 1308 570 1295C543 1282 520 1264 502 1242C484 1219 471 1193 462 1162C453 1131 448 1098 448 1062L448 0L64 0L64 206Z"/>
<glyph unicode="&#xe0;" horiz-adv-x="1098" d="M1048 0L708 0L687 90C673 75 656 61 637 47C617 32 595 20 571 9C546 -3 520 -12 492 -19C463 -26 433 -29 402 -29C350 -29 303 -21 262 -6C220 10 185 33 156 64C127 94 105 132 90 177C75 222 67 275 67 334C67 398 79 451 103 494C127 536 158 570 195 595C232 620 272 637 315 648C358 658 400 663 439 663L665 663L665 721C665 754 659 781 648 802C637 823 621 840 601 853C581 866 557 875 529 880C501 885 470 888 437 888C402 888 369 885 339 880C308 874 282 867 260 860C233 852 210 843 189 832L129 1030C162 1041 197 1051 234 1060C265 1067 300 1074 339 1081C377 1088 415 1091 453 1091C515 1091 574 1085 631 1073C688 1060 738 1038 782 1007C825 975 860 932 886 878C911 824 924 755 924 672L924 206L1048 206L1048 0ZM456 181C474 181 492 184 511 189C530 194 548 201 567 210C585 219 603 229 620 240C637 251 652 262 665 273L665 469L519 469C490 469 464 467 439 462C414 457 392 448 373 437C354 425 340 409 329 390C318 370 313 346 313 317C313 272 326 238 353 215C380 192 414 181 456 181ZM694 1287L467 1287L163 1650L435 1650L694 1287Z"/>
<glyph unicode="&#xe1;" horiz-adv-x="1098" d="M1048 0L708 0L687 90C673 75 656 61 637 47C617 32 595 20 571 9C546 -3 520 -12 492 -19C463 -26 433 -29 402 -29C350 -29 303 -21 262 -6C220 10 185 33 156 64C127 94 105 132 90 177C75 222 67 275 67 334C67 398 79 451 103 494C127 536 158 570 195 595C232 620 272 637 315 648C358 658 400 663 439 663L665 663L665 721C665 754 659 781 648 802C637 823 621 840 601 853C581 866 557 875 529 880C501 885 470 888 437 888C402 888 369 885 339 880C308 874 282 867 260 860C233 852 210 843 189 832L129 1030C162 1041 197 1051 234 1060C265 1067 300 1074 339 1081C377 1088 415 1091 453 1091C515 1091 574 1085 631 1073C688 1060 738 1038 782 1007C825 975 860 932 886 878C911 824 924 755 924 672L924 206L1048 206L1048 0ZM456 181C474 181 492 184 511 189C530 194 548 201 567 210C585 219 603 229 620 240C637 251 652 262 665 273L665 469L519 469C490 469 464 467 439 462C414 457 392 448 373 437C354 425 340 409 329 390C318 370 313 346 313 317C313 272 326 238 353 215C380 192 414 181 456 181ZM611 1650L888 1650L582 1287L354 1287L611 1650Z"/>
<glyph unicode="&#xe2;" horiz-adv-x="1098" d="M1048 0L708 0L687 90C673 75 656 61 637 47C617 32 595 20 571 9C546 -3 520 -12 492 -19C463 -26 433 -29 402 -29C350 -29 303 -21 262 -6C220 10 185 33 156 64C127 94 105 132 90 177C75 222 67 275 67 334C67 398 79 451 103 494C127 536 158 570 195 595C232 620 272 637 315 648C358 658 400 663 439 663L665 663L665 721C665 754 659 781 648 802C637 823 621 840 601 853C581 866 557 875 529 880C501 885 470 888 437 888C402 888 369 885 339 880C308 874 282 867 260 860C233 852 210 843 189 832L129 1030C162 1041 197 1051 234 1060C265 1067 300 1074 339 1081C377 1088 415 1091 453 1091C515 1091 574 1085 631 1073C688 1060 738 1038 782 1007C825 975 860 932 886 878C911 824 924 755 924 672L924 206L1048 206L1048 0ZM456 181C474 181 492 184 511 189C530 194 548 201 567 210C585 219 603 229 620 240C637 251 652 262 665 273L665 469L519 469C490 469 464 467 439 462C414 457 392 448 373 437C354 425 340 409 329 390C318 370 313 346 313 317C313 272 326 238 353 215C380 192 414 181 456 181ZM391 1650L664 1650L921 1287L694 1287L526 1522L360 1287L133 1287L391 1650Z"/>
<glyph unicode="&#xe3;" horiz-adv-x="1098" d="M1048 0L708 0L687 90C673 75 656 61 637 47C617 32 595 20 571 9C546 -3 520 -12 492 -19C463 -26 433 -29 402 -29C350 -29 303 -21 262 -6C220 10 185 33 156 64C127 94 105 132 90 177C75 222 67 275 67 334C67 398 79 451 103 494C127 536 158 570 195 595C232 620 272 637 315 648C358 658 400 663 439 663L665 663L665 721C665 754 659 781 648 802C637 823 621 840 601 853C581 866 557 875 529 880C501 885 470 888 437 888C402 888 369 885 339 880C308 874 282 867 260 860C233 852 210 843 189 832L129 1030C162 1041 197 1051 234 1060C265 1067 300 1074 339 1081C377 1088 415 1091 453 1091C515 1091 574 1085 631 1073C688 1060 738 1038 782 1007C825 975 860 932 886 878C911 824 924 755 924 672L924 206L1048 206L1048 0ZM456 181C474 181 492 184 511 189C530 194 548 201 567 210C585 219 603 229 620 240C637 251 652 262 665 273L665 469L519 469C490 469 464 467 439 462C414 457 392 448 373 437C354 425 340 409 329 390C318 370 313 346 313 317C313 272 326 238 353 215C380 192 414 181 456 181ZM116 1287C116 1296 117 1311 119 1330C120 1349 124 1371 130 1394C135 1417 143 1442 154 1467C165 1492 179 1514 198 1535C217 1555 240 1572 267 1585C294 1598 327 1604 366 1604C399 1604 428 1597 455 1584C481 1571 505 1556 528 1540C551 1524 572 1509 593 1496C613 1483 633 1476 653 1476C672 1476 687 1480 699 1489C710 1498 719 1508 726 1521C732 1534 736 1548 738 1563C740 1578 741 1591 741 1604L924 1604C924 1603 924 1594 923 1578C922 1562 920 1542 916 1519C911 1495 904 1470 894 1443C884 1416 870 1391 852 1368C833 1345 810 1325 782 1310C753 1295 718 1287 676 1287C641 1287 611 1294 584 1307C557 1320 533 1335 511 1351C488 1367 467 1382 448 1395C429 1408 409 1415 389 1415C369 1415 353 1410 342 1401C331 1392 322 1380 316 1367C310 1354 306 1340 305 1325C303 1310 302 1298 302 1287L116 1287Z"/>
<glyph unicode="&#xe4;" horiz-adv-x="1098" d="M1048 0L708 0L687 90C673 75 656 61 637 47C617 32 595 20 571 9C546 -3 520 -12 492 -19C463 -26 433 -29 402 -29C350 -29 303 -21 262 -6C220 10 185 33 156 64C127 94 105 132 90 177C75 222 67 275 67 334C67 398 79 451 103 494C127 536 158 570 195 595C232 620 272 637 315 648C358 658 400 663 439 663L665 663L665 721C665 754 659 781 648 802C637 823 621 840 601 853C581 866 557 875 529 880C501 885 470 888 437 888C402 888 369 885 339 880C308 874 282 867 260 860C233 852 210 843 189 832L129 1030C162 1041 197 1051 234 1060C265 1067 300 1074 339 1081C377 1088 415 1091 453 1091C515 1091 574 1085 631 1073C688 1060 738 1038 782 1007C825 975 860 932 886 878C911 824 924 755 924 672L924 206L1048 206L1048 0ZM456 181C474 181 492 184 511 189C530 194 548 201 567 210C585 219 603 229 620 240C637 251 652 262 665 273L665 469L519 469C490 469 464 467 439 462C414 457 392 448 373 437C354 425 340 409 329 390C318 370 313 346 313 317C313 272 326 238 353 215C380 192 414 181 456 181ZM434 1287L168 1287L168 1558L434 1558L434 1287ZM908 1287L641 1287L641 1558L908 1558L908 1287Z"/>
<glyph unicode="&#xe5;" horiz-adv-x="1098" d="M1048 0L708 0L687 90C673 75 656 61 637 47C617 32 595 20 571 9C546 -3 520 -12 492 -19C463 -26 433 -29 402 -29C350 -29 303 -21 262 -6C220 10 185 33 156 64C127 94 105 132 90 177C75 222 67 275 67 334C67 398 79 451 103 494C127 536 158 570 195 595C232 620 272 637 315 648C358 658 400 663 439 663L665 663L665 721C665 754 659 781 648 802C637 823 621 840 601 853C581 866 557 875 529 880C501 885 470 888 437 888C402 888 369 885 339 880C308 874 282 867 260 860C233 852 210 843 189 832L129 1030C162 1041 197 1051 234 1060C265 1067 300 1074 339 1081C377 1088 415 1091 453 1091C515 1091 574 1085 631 1073C688 1060 738 1038 782 1007C825 975 860 932 886 878C911 824 924 755 924 672L924 206L1048 206L1048 0ZM456 181C474 181 492 184 511 189C530 194 548 201 567 210C585 219 603 229 620 240C637 251 652 262 665 273L665 469L519 469C490 469 464 467 439 462C414 457 392 448 373 437C354 425 340 409 329 390C318 370 313 346 313 317C313 272 326 238 353 215C380 192 414 181 456 181ZM258 1517C258 1552 264 1585 277 1616C289 1647 306 1674 327 1697C348 1720 374 1739 404 1753C433 1766 465 1773 499 1773C532 1773 563 1766 592 1753C621 1739 647 1720 670 1697C692 1674 710 1647 723 1616C736 1585 742 1552 742 1517C742 1481 736 1448 723 1417C710 1386 692 1359 670 1336C647 1313 621 1296 592 1283C563 1270 532 1263 499 1263C465 1263 433 1270 404 1283C374 1296 348 1313 327 1336C306 1359 289 1386 277 1417C264 1448 258 1481 258 1517ZM402 1517C402 1503 405 1490 410 1478C415 1465 422 1454 431 1445C440 1436 450 1428 462 1423C473 1418 486 1415 499 1415C513 1415 526 1418 538 1423C550 1428 561 1436 570 1445C579 1454 586 1465 591 1478C596 1490 598 1503 598 1517C598 1546 589 1571 570 1591C551 1611 527 1621 499 1621C486 1621 473 1618 462 1613C450 1608 440 1600 431 1591C422 1582 415 1571 410 1558C405 1545 402 1532 402 1517Z"/>
</font>
</defs>
</svg>
